<svg width="56" height="56" viewBox="0 0 56 56" fill="none" xmlns="http://www.w3.org/2000/svg">
<path d="M19.607 35.77V23.6306H16.7118V20.7396H23.3716V35.77H19.607Z" fill="white"/>
<path d="M37.8471 24.4973C37.8471 25.9424 37.268 26.8095 35.8204 27.6766C37.5575 28.2547 38.4261 29.6998 38.4261 31.434C38.4261 34.0353 36.1099 35.7695 32.3462 35.7695C28.5824 35.7695 26.2662 34.0353 26.2662 31.434C26.2662 29.6998 27.4243 28.2547 29.1614 27.6766C28.0034 27.0985 27.1348 25.6534 27.1348 24.4973C27.1348 22.185 29.1614 20.4508 32.3462 20.4508C35.8204 20.4508 37.8471 22.185 37.8471 24.4973ZM30.03 31.145C30.03 32.3011 30.8986 33.1682 32.6357 33.1682C34.3728 33.1682 35.2414 32.5902 35.2414 31.145C35.2414 29.9889 34.3728 29.1218 32.6357 29.1218C30.8986 29.1218 30.03 29.9889 30.03 31.145ZM30.3195 24.7863C30.3195 25.9424 31.1881 26.5205 32.3462 26.5205C33.5043 26.5205 34.3728 25.9424 34.3728 24.7863C34.3728 23.6302 33.5043 23.0521 32.3462 23.0521C31.1881 23.0521 30.3195 23.6302 30.3195 24.7863Z" fill="white"/>
<path d="M45.0851 22.474C45.6641 24.2082 45.9536 26.2314 45.9536 28.2546C45.9536 38.3708 37.8471 46.4637 27.7138 46.4637C17.5806 46.4637 9.47404 38.3708 9.47404 28.2546C9.47404 18.1385 17.5806 10.0456 27.7138 10.0456C29.7405 10.0456 31.7671 10.3346 33.5043 10.9127V6.86624C31.4776 6.28818 29.7405 5.99915 27.7138 5.99915C15.554 5.99915 5.71027 15.8262 5.71027 27.9656C5.71027 40.105 15.554 49.932 27.7138 49.932C39.8737 49.932 49.7174 40.105 49.7174 27.9656C49.7174 25.9424 49.4279 23.9191 48.8489 22.185C49.1384 22.474 45.0851 22.474 45.0851 22.474Z" fill="white"/>
<path d="M43.9264 12.0694V8.02197H40.7428V12.0694H36.6884V15.2488H40.7428V19.2948H43.9264V15.2488H47.9808V12.0694H43.9264Z" fill="white"/>
</svg>
