<svg width="10" height="10" viewBox="0 0 10 10" fill="none" xmlns="http://www.w3.org/2000/svg">
<path d="M9.99865 4.88771C9.99524 4.73895 9.98557 4.59032 9.96912 4.44245C9.84513 3.31777 9.34725 2.27606 8.53555 1.46436C7.84254 0.771356 6.98183 0.307178 6.04502 0.108991C5.35849 -0.0363303 4.64144 -0.0363303 3.95491 0.108991C3.01809 0.307178 2.15738 0.771356 1.46438 1.46436C0.628376 2.30034 0.125214 3.38031 0.0206382 4.54362C0.000275192 4.76804 -0.00508968 4.99362 0.00485687 5.21885C0.0574678 6.44795 0.552367 7.59732 1.41325 8.48313C1.49739 8.57028 1.58528 8.65377 1.67545 8.7345C2.592 9.55252 3.76152 10 4.99998 10C6.23819 10 7.4075 9.55268 8.32397 8.73497C8.41396 8.6544 8.50175 8.57111 8.58573 8.48411C9.4874 7.55685 9.9878 6.34056 9.99947 5.04627C10.0005 4.99343 9.99983 4.9405 9.99865 4.88771ZM5.07732 1.99584L7.01001 0.591672C7.83046 0.967271 8.52858 1.5653 9.02681 2.30821L8.30414 4.1952L7.05318 4.60165L5.0773 3.1661L5.07732 1.99584ZM2.9899 0.591653L4.92258 1.99582V3.16606L2.9467 4.60163L1.63075 4.17405L0.937072 2.36284C1.43743 1.59461 2.14943 0.976396 2.9899 0.591653ZM1.28375 8.10544C0.672352 7.37501 0.271906 6.46246 0.176787 5.46213L1.58649 4.32237L2.89227 4.74664L3.64952 7.07721L2.88934 8.12349L1.28375 8.10544ZM6.89644 8.17933L6.83524 8.37519C6.80381 8.37752 6.77896 8.40346 6.77896 8.43548C6.77896 8.45455 6.78793 8.47137 6.8017 8.48251L6.65401 8.95503C6.65309 8.95499 6.6522 8.95475 6.65128 8.95475C6.61774 8.95475 6.59055 8.98195 6.59055 9.01549C6.59055 9.03716 6.602 9.05606 6.61908 9.06681L6.46718 9.55286C6.46115 9.55086 6.45482 9.54951 6.44812 9.54951C6.41458 9.54951 6.38739 9.5767 6.38739 9.61024C6.38739 9.62117 6.3905 9.63129 6.39555 9.64014C6.23807 9.6876 6.0773 9.72739 5.91358 9.75876C5.90243 9.74609 5.8863 9.73792 5.86811 9.73792C5.84219 9.73792 5.82022 9.75423 5.81151 9.77708C5.72001 9.79259 5.62765 9.80549 5.53451 9.81575C5.53612 9.81029 5.53725 9.80463 5.53725 9.79864C5.53725 9.7651 5.51006 9.7379 5.47652 9.7379C5.44298 9.7379 5.41578 9.7651 5.41578 9.79864C5.41578 9.80882 5.41852 9.81826 5.42295 9.8267C5.32465 9.83524 5.22554 9.84086 5.12568 9.84342C5.13788 9.83232 5.14568 9.81646 5.14568 9.79866C5.14568 9.76512 5.11848 9.73792 5.08494 9.73792C5.0514 9.73792 5.0242 9.76512 5.0242 9.79866C5.0242 9.81724 5.03272 9.83365 5.04586 9.84479C5.03059 9.84493 5.01533 9.84522 5.00002 9.84522C4.9125 9.84522 4.82555 9.84274 4.73916 9.83811C4.74834 9.82748 4.75408 9.8138 4.75408 9.79864C4.75408 9.7651 4.72688 9.7379 4.69334 9.7379C4.6598 9.7379 4.63261 9.7651 4.63261 9.79864C4.63261 9.811 4.63635 9.82245 4.64267 9.83202C4.54835 9.82511 4.45478 9.81552 4.36203 9.80326C4.36215 9.80172 4.3625 9.80023 4.3625 9.79864C4.3625 9.7651 4.33531 9.7379 4.30177 9.7379C4.27259 9.7379 4.24829 9.75846 4.24242 9.78588C4.06144 9.75733 3.88378 9.71872 3.70997 9.67065C3.7421 9.66906 3.76775 9.64275 3.76775 9.61021C3.76775 9.57666 3.74055 9.54947 3.70701 9.54947C3.67347 9.54947 3.64627 9.57666 3.64627 9.61021C3.64627 9.63084 3.65663 9.64901 3.67235 9.66C3.63249 9.64862 3.59276 9.63693 3.55333 9.62458L3.50367 9.46573C3.50847 9.46694 3.5134 9.46778 3.51857 9.46778C3.55211 9.46778 3.57931 9.44059 3.57931 9.40705C3.57931 9.3735 3.55211 9.34631 3.51857 9.34631C3.50029 9.34631 3.48407 9.35457 3.47293 9.36736L3.10162 8.17929C3.09616 8.16181 3.08474 8.14752 3.07018 8.13792L3.77227 7.17156H6.22779L6.92928 8.13708C6.91399 8.14671 6.90206 8.16134 6.89644 8.17933ZM7.11055 8.12347L6.35038 7.07721L7.10763 4.74664L8.34919 4.34324L9.52133 5.29094C9.52059 5.29476 9.52014 5.29869 9.52014 5.30273C9.52014 5.33627 9.54734 5.36346 9.58088 5.36346C9.58941 5.36346 9.59752 5.36166 9.60488 5.35849L9.73162 5.46097C9.72647 5.4699 9.7233 5.4801 9.7233 5.49115C9.7233 5.5247 9.7505 5.55188 9.78404 5.55188C9.79524 5.55188 9.80557 5.54865 9.81458 5.54336C9.80403 5.63739 9.79075 5.73059 9.77489 5.82292C9.74572 5.82737 9.7233 5.85233 9.7233 5.88274C9.7233 5.90536 9.73581 5.92488 9.75416 5.93531C9.72058 6.10634 9.67801 6.27416 9.62691 6.43828C9.61577 6.42522 9.5994 6.41678 9.5809 6.41678C9.54736 6.41678 9.52016 6.44398 9.52016 6.47752C9.52016 6.51106 9.54736 6.53825 9.5809 6.53825C9.58583 6.53825 9.59057 6.53751 9.59515 6.53639C9.54203 6.69483 9.48108 6.84973 9.41249 7.00043C9.40619 6.99822 9.39953 6.99679 9.39246 6.99679C9.35892 6.99679 9.33172 7.02399 9.33172 7.05753C9.33172 7.07956 9.34357 7.09867 9.36111 7.10932C9.20955 7.42144 9.02549 7.71494 8.81327 7.98541C8.80828 7.98408 8.80311 7.98314 8.79768 7.98314C8.76414 7.98314 8.73695 8.01034 8.73695 8.04388C8.73695 8.05394 8.73963 8.06328 8.74396 8.07162C8.73471 8.08288 8.72555 8.09422 8.71619 8.1054L7.11055 8.12347Z" fill="white"/>
</svg>
