<svg width="113" height="60" viewBox="0 0 113 60" fill="none" xmlns="http://www.w3.org/2000/svg">
<path d="M22.6171 43.5436V35.8047H20.3208V33.4097H27.7072V35.8047H25.4107V43.5436H22.6171Z" fill="white"/>
<path d="M29.0724 43.5436V33.4097H31.9921C33.1356 33.4097 33.9326 33.4616 34.3831 33.5654C34.8335 33.6693 35.2221 33.8435 35.5489 34.0879C35.9176 34.3648 36.2011 34.718 36.3996 35.147C36.598 35.5761 36.6972 36.0492 36.6972 36.5659C36.6972 37.3504 36.5023 37.9886 36.1127 38.4798C35.7227 38.9715 35.1545 39.2978 34.4076 39.4596L37.2013 43.5436H34.0436L31.6911 39.5772V43.5436H29.0724ZM31.6911 38.1997H32.2092C32.8113 38.1997 33.251 38.098 33.5289 37.8949C33.8068 37.692 33.9457 37.3737 33.9457 36.9397C33.9457 36.4321 33.8162 36.071 33.5571 35.8565C33.2981 35.6418 32.8628 35.5346 32.2513 35.5346H31.6913V38.1997H31.6911Z" fill="white"/>
<path d="M37.0611 43.5436L40.5968 33.4097H44.0976L47.6403 43.5436H44.8607L44.3426 41.7299H40.3727L39.8405 43.5436H37.0611ZM40.9749 39.7572H43.7545L42.7112 36.4137C42.6786 36.3122 42.6343 36.1485 42.5782 35.9222C42.5222 35.6963 42.4499 35.4056 42.3611 35.0501C42.3003 35.2993 42.2409 35.5368 42.1827 35.763C42.1243 35.989 42.0647 36.2059 42.0041 36.4136L40.9749 39.7572Z" fill="white"/>
<path d="M48.6207 43.5437V33.4097H51.3162L55.1881 38.6219C55.2627 38.7284 55.3849 38.9415 55.5555 39.2623C55.7258 39.5831 55.914 39.9649 56.1192 40.4078C56.0633 39.988 56.0224 39.6143 55.9968 39.2866C55.971 38.9588 55.9582 38.6681 55.9582 38.4143V33.4095H58.6397V43.5435H55.9582L52.0863 38.3104C52.0068 38.2041 51.8821 37.9909 51.7117 37.6702C51.5412 37.3491 51.3557 36.9722 51.1552 36.5382C51.2111 36.9629 51.2517 37.3389 51.2776 37.6666C51.303 37.9944 51.3162 38.2853 51.3162 38.5389V43.5437H48.6207Z" fill="white"/>
<path d="M61.2933 40.2695C61.7087 40.7357 62.1183 41.0841 62.522 41.3146C62.9257 41.5454 63.3283 41.6608 63.7298 41.6608C64.1031 41.6608 64.41 41.5615 64.6504 41.3632C64.8906 41.1649 65.011 40.9133 65.011 40.6087C65.011 40.2718 64.9071 40.0123 64.6997 39.8299C64.4917 39.6476 64.0217 39.4596 63.2888 39.2657C62.2852 38.9982 61.5756 38.6496 61.1602 38.2206C60.7448 37.7915 60.537 37.2031 60.537 36.4555C60.537 35.4864 60.8649 34.6963 61.5208 34.0848C62.1763 33.473 63.0271 33.1676 64.0727 33.1676C64.6375 33.1676 65.1729 33.2425 65.6795 33.3926C66.1856 33.5425 66.6654 33.7696 67.1182 34.0744L66.243 36.061C65.9254 35.7936 65.5998 35.5914 65.2662 35.4555C64.9325 35.3194 64.6023 35.2511 64.2753 35.2511C63.9393 35.2511 63.6662 35.3309 63.4562 35.4898C63.246 35.6493 63.1411 35.8533 63.1411 36.1026C63.1411 36.3564 63.2331 36.5593 63.4176 36.7116C63.6018 36.8639 63.9578 37.0092 64.4853 37.1476L64.6114 37.1822C65.7501 37.4868 66.4993 37.8216 66.8588 38.1859C67.1014 38.4353 67.2858 38.734 67.4119 39.0824C67.5379 39.4309 67.6011 39.8172 67.6011 40.2418C67.6011 41.3172 67.2439 42.181 66.5299 42.8343C65.8159 43.4873 64.8635 43.8138 63.6733 43.8138C62.959 43.8138 62.3091 43.6936 61.7233 43.4539C61.1376 43.214 60.5741 42.8377 60.0325 42.3255L61.2933 40.2695Z" fill="white"/>
<path d="M69.1699 43.5436V33.4097H75.4502V35.6317H71.8934V37.3898H75.2471V39.5635H71.8934V43.5436H69.1699Z" fill="white"/>
<path d="M76.9696 43.5436V33.4097H83.2498V35.6317H79.693V37.3898H83.0468V39.5635H79.693V41.273H83.2498V43.5436H76.9696Z" fill="white"/>
<path d="M85.0983 43.5436V33.4097H88.0179C89.1615 33.4097 89.9584 33.4616 90.4089 33.5654C90.8593 33.6693 91.2481 33.8435 91.5746 34.0879C91.9434 34.3648 92.2269 34.718 92.4253 35.147C92.6235 35.5761 92.7229 36.0492 92.7229 36.5659C92.7229 37.3504 92.5278 37.9886 92.1383 38.4798C91.7483 38.9715 91.1803 39.2978 90.4334 39.4596L93.2271 43.5436H90.0694L87.7167 39.5772V43.5436H85.0983ZM87.7167 38.1997H88.235C88.8372 38.1997 89.277 38.098 89.5547 37.8949C89.8324 37.692 89.9715 37.3737 89.9715 36.9397C89.9715 36.4321 89.842 36.071 89.5829 35.8565C89.3237 35.6418 88.8886 35.5346 88.2771 35.5346H87.7167V38.1997Z" fill="white"/>
<path d="M37.8316 30.7014V17.1893H41.488C42.9956 17.1893 44.0488 17.2387 44.6474 17.337C45.246 17.4355 45.7613 17.6046 46.193 17.8447C46.6853 18.1216 47.0606 18.4922 47.319 18.9569C47.5775 19.4214 47.7067 19.9583 47.7067 20.5674C47.7067 21.3367 47.5136 21.9472 47.1276 22.3995C46.7415 22.8518 46.1259 23.1948 45.2813 23.4286C46.2294 23.5024 46.9712 23.8392 47.506 24.4392C48.0408 25.0392 48.3085 25.8406 48.3085 26.8435C48.3085 27.5634 48.158 28.1973 47.8571 28.7447C47.5562 29.2926 47.1261 29.717 46.5669 30.0184C46.111 30.2645 45.5488 30.4398 44.88 30.5445C44.2113 30.6493 43.117 30.7016 41.5975 30.7016H37.8316V30.7014ZM41.2054 22.5887H41.9348C42.8342 22.5887 43.4515 22.4888 43.7858 22.2887C44.1199 22.0888 44.2873 21.7426 44.2873 21.2503C44.2873 20.7398 44.1308 20.3814 43.8178 20.1751C43.5046 19.9691 42.8953 19.8659 41.9895 19.8659H41.2054V22.5887ZM41.2054 27.9416H42.4818C43.345 27.9416 43.9558 27.8325 44.3146 27.6139C44.6734 27.3956 44.8525 27.0309 44.8525 26.5204C44.8525 25.9544 44.6885 25.5589 44.3601 25.3343C44.0318 25.1099 43.424 24.9975 42.5365 24.9975H41.2052V27.9416H41.2054Z" fill="white"/>
<path d="M48.9284 30.7014L53.5331 17.1893H58.0923L62.7061 30.7014H59.0863L58.4115 28.2832H53.2416L52.5484 30.7014H48.9284ZM54.0253 25.6528H57.6454L56.2866 21.1949C56.244 21.0598 56.1863 20.8413 56.1134 20.5398C56.0404 20.2384 55.9461 19.8506 55.8306 19.3768C55.7516 19.709 55.6741 20.026 55.5981 20.3274C55.5219 20.6289 55.4445 20.918 55.3656 21.1949L54.0253 25.6528Z" fill="white"/>
<path d="M63.9827 30.7014V17.1893H67.4932L72.5355 24.1391C72.6325 24.2807 72.792 24.5652 73.0142 24.9929C73.236 25.4206 73.4805 25.9297 73.7484 26.5204C73.6753 25.9605 73.6219 25.4622 73.5887 25.0252C73.5553 24.5883 73.5386 24.2009 73.5386 23.8623V17.1893H77.0307V30.7014H73.5386L68.4962 23.7238C68.3927 23.5824 68.2303 23.2978 68.0084 22.87C67.7865 22.4423 67.5447 21.9394 67.2835 21.361C67.3566 21.9272 67.4098 22.4287 67.4432 22.8654C67.4764 23.3022 67.4933 23.69 67.4933 24.0284V30.7014H63.9827Z" fill="white"/>
<path d="M79.8937 30.7014V17.1893H83.4954V23.3269L87.7173 17.1893H91.9572L87.0242 23.7791L92.3857 30.7012H87.8449L83.4954 24.6374V30.7012H79.8937V30.7014Z" fill="white"/>
<path d="M34.9127 17.1548H20.129V19.8326H34.9127V17.1548Z" fill="white"/>
<path d="M34.9127 22.353H20.129V25.0307H34.9127V22.353Z" fill="white"/>
<path d="M34.9127 28.0234H20.129V30.7014H34.9127V28.0234Z" fill="white"/>
</svg>
