<svg width="24" height="24" viewBox="0 0 24 24" fill="none" xmlns="http://www.w3.org/2000/svg">
<path d="M12 0.85C18.1548 0.85 23.15 5.84517 23.15 12C23.15 18.1549 18.1548 23.15 12 23.15C5.84512 23.15 0.85 18.1548 0.85 12C0.849953 5.84517 5.84512 0.85 12 0.85ZM21.9633 11.41C21.8453 9.10289 20.942 7.03935 19.4801 5.44411C18.0198 7.04128 17.1162 9.18089 16.9969 11.41H21.9633ZM19.48 18.556C20.942 16.9608 21.8453 14.8972 21.9633 12.59H16.9966C17.1147 14.8972 18.018 16.9608 19.48 18.556ZM12.59 12.59V21.9634C14.9072 21.8451 17.0551 20.9371 18.6543 19.4705C17.0441 17.6451 15.9377 15.2457 15.8157 12.59H12.59ZM12.59 11.41H15.8157C15.9348 8.75584 16.962 6.43477 18.654 4.52931C17.0548 3.0628 14.907 2.15503 12.59 2.03665V11.41ZM4.51996 5.44404C3.05799 7.03929 2.15465 9.10286 2.03661 11.41H7.00332C6.88527 9.10286 5.98194 7.03929 4.51996 5.44404ZM8.18422 11.41H11.41V2.03665C9.09278 2.15504 6.94485 3.06292 5.34568 4.52959C6.95585 6.35501 8.0623 8.75426 8.18422 11.41ZM11.41 21.9633V12.59H8.18429C8.06525 15.2427 7.03904 17.5627 5.34875 19.4676C6.95106 20.859 9.09865 21.8417 11.41 21.9633ZM2.03661 12.59C2.15465 14.8972 3.05796 16.9607 4.5199 18.5559C5.98017 16.9588 6.88377 14.8192 7.00303 12.59H2.03661Z" fill="white" stroke="white" stroke-width="0.3"/>
</svg>
