<svg width="24" height="22" viewBox="0 0 24 22" fill="none" xmlns="http://www.w3.org/2000/svg">
<path d="M12.3534 10.56C13.121 10.56 13.7432 9.96898 13.7432 9.23995C13.7432 8.51092 13.121 7.91992 12.3534 7.91992C11.5859 7.91992 10.9637 8.51092 10.9637 9.23995C10.9637 9.96898 11.5859 10.56 12.3534 10.56Z" fill="white"/>
<path d="M12.3534 14.08C13.121 14.08 13.7432 13.489 13.7432 12.76C13.7432 12.0309 13.121 11.4399 12.3534 11.4399C11.5859 11.4399 10.9637 12.0309 10.9637 12.76C10.9637 13.489 11.5859 14.08 12.3534 14.08Z" fill="white"/>
<path d="M12.3536 5.28003C9.0182 5.28003 6.33139 7.83201 6.33139 11C6.33139 14.168 9.0182 16.72 12.3536 16.72C15.689 16.72 18.3758 14.168 18.3758 11C18.3758 7.83201 15.689 5.28003 12.3536 5.28003ZM14.6698 12.76C14.6698 13.992 13.6507 14.96 12.3536 14.96C11.0565 14.96 10.0374 13.992 10.0374 12.76C10.0374 12.056 10.408 11.44 10.9639 11C10.408 10.56 10.0374 9.94402 10.0374 9.24001C10.0374 8.00801 11.0566 7.04003 12.3536 7.04003C13.6507 7.04003 14.6698 8.00806 14.6698 9.24001C14.6698 9.94402 14.2992 10.56 13.7434 11C14.2992 11.44 14.6698 12.0561 14.6698 12.76Z" fill="white"/>
<path d="M12.3536 0C5.96083 0 0.772461 4.92801 0.772461 11C0.772461 17.072 5.96083 22 12.3536 22C18.7465 22 23.9348 17.072 23.9348 11C23.9348 4.92801 18.7465 0 12.3536 0ZM12.3536 21.12C6.42406 21.12 1.69891 16.6321 1.69891 11C1.69891 5.36799 6.42406 0.879956 12.3536 0.879956C18.2832 0.879956 23.0083 5.36799 23.0083 11C23.0083 16.6321 18.2832 21.12 12.3536 21.12Z" fill="white"/>
</svg>
