<svg width="84" height="54" viewBox="0 0 84 54" fill="none" xmlns="http://www.w3.org/2000/svg">
<g clip-path="url(#clip0_2_210)">
<path d="M9.46 48.21H5.16V0.210022H9.46V48.21Z" fill="white"/>
<path d="M61.01 0.200012H65.36V41.26C64.2 41.61 63.06 42 61.9 42.26C61.66 42.26 61.19 41.95 61.05 41.67C60.9737 41.3006 60.9737 40.9194 61.05 40.55V0.200012H61.01Z" fill="white"/>
<path d="M45.46 42.42C45.6 41.58 45.72 40.84 45.86 40.1C45.9649 39.7745 46.0022 39.431 45.9696 39.0905C45.937 38.7501 45.8352 38.4199 45.6704 38.1203C45.5055 37.8206 45.2812 37.5578 45.0112 37.348C44.7412 37.1381 44.4311 36.9857 44.1 36.9C43.9509 36.796 43.8281 36.6587 43.7413 36.499C43.6546 36.3393 43.6062 36.1616 43.6 35.98C43.6 28.68 43.6 21.39 43.6 14.09V0.22998H48.05V1.22998C48.05 14.2966 48.05 27.3666 48.05 40.44C48.05 41.34 47.82 41.77 46.92 41.89C46.4169 42.0174 45.9277 42.195 45.46 42.42Z" fill="white"/>
<path d="M29.75 42.58C29.1 41.39 28.5 40.3 27.93 39.2C27.8306 38.9736 27.786 38.7269 27.8 38.48C27.8 25.94 27.8 13.4 27.8 0.859991C27.8 0.669991 27.8 0.48999 27.85 0.23999H31.6V1.13999C31.6 14.38 31.6 27.62 31.6 40.86C31.6 41.51 31.49 41.93 30.78 42.09C30.4169 42.2081 30.0707 42.3729 29.75 42.58Z" fill="white"/>
<path d="M24.87 37.74H21.1V0.169983H24.41C24.58 0.169983 24.82 0.519983 24.86 0.729983C24.895 1.17263 24.895 1.61734 24.86 2.05998V37.74H24.87Z" fill="white"/>
<path d="M79.1 48.2H76.66V0.25H79.1V48.2Z" fill="white"/>
<path d="M35.29 0.200012H37.61V42.35C36.92 42.11 36.29 41.92 35.68 41.67C35.5828 41.6064 35.4992 41.5241 35.434 41.428C35.3688 41.3319 35.3232 41.2238 35.3 41.11C35.2722 40.7773 35.2722 40.4428 35.3 40.11C35.3 27.1967 35.3 14.2833 35.3 1.37001L35.29 0.200012Z" fill="white"/>
<path d="M25.56 46.4C28.26 47.93 27.08 51.99 24.97 52.83C24.4992 53.0947 23.9896 53.2837 23.46 53.39C21.21 53.45 18.97 53.39 16.63 53.39C16.63 53.08 16.71 52.71 16.77 52.39C17.44 48.58 18.13 44.77 18.77 40.96C18.88 40.32 19.13 40.1 19.77 40.13C21.13 40.13 22.51 40.13 23.87 40.19C26.81 40.39 27.87 42.4 26.52 45.03C26.2234 45.5026 25.903 45.9599 25.56 46.4ZM19.46 51.53C20.6536 51.5166 21.8454 51.4365 23.03 51.29C23.2875 51.229 23.5304 51.1176 23.7446 50.9621C23.9587 50.8066 24.1399 50.6101 24.2775 50.3841C24.4152 50.1581 24.5066 49.907 24.5465 49.6453C24.5864 49.3837 24.574 49.1168 24.51 48.86C24.39 47.97 23.81 47.55 22.63 47.52C21.994 47.48 21.356 47.48 20.72 47.52C20.5 47.52 20.15 47.74 20.12 47.91C19.87 49 19.7 50.16 19.46 51.53ZM20.53 45.53H22.6C22.7597 45.545 22.9204 45.545 23.08 45.53C23.5539 45.4511 23.9785 45.191 24.264 44.8047C24.5496 44.4184 24.6736 43.9361 24.61 43.46C24.55 42.59 24.17 42.32 22.99 42.32H21.1L20.53 45.53Z" fill="white"/>
<path d="M1.1 48.2H0V0.200012H1.1V48.2Z" fill="white"/>
<path d="M2.83 48.2H1.72V0.200012H2.83V48.2Z" fill="white"/>
<path d="M12.02 0.210022H13.2V48.21H12.02V0.210022Z" fill="white"/>
<path d="M71.28 0.200012H72.58V1.20001V47.35C72.6052 47.5057 72.6052 47.6644 72.58 47.82C72.494 47.9659 72.3898 48.1003 72.27 48.22C72.15 48.1 71.94 48 71.92 47.87C71.6033 46.2629 71.3995 44.6356 71.31 43C71.31 29.07 71.31 15.13 71.31 1.20001L71.28 0.200012Z" fill="white"/>
<path d="M53.82 40.3V1.24001C53.82 0.0700135 53.82 0.0600135 55.22 0.240013V1.93001C55.22 13.99 55.22 26.0433 55.22 38.09C55.25 39.17 55.04 39.92 53.82 40.3Z" fill="white"/>
<path d="M15.42 0.210022H16.71C16.71 0.560022 16.77 0.890022 16.77 1.21002C16.77 13.65 16.83 26.09 16.72 38.53C16.5425 40.9955 16.1068 43.4355 15.42 45.81V0.210022Z" fill="white"/>
<path d="M67.87 0.200012H69.1V42.26C68.1 42.14 67.83 41.71 67.83 40.76C67.83 27.7133 67.83 14.67 67.83 1.63001L67.87 0.200012Z" fill="white"/>
<path d="M51.68 41.7C50.83 41.77 50.4 41.6 50.4 40.64C50.4 27.5 50.4 14.36 50.4 1.21997V0.219971H51.65L51.68 41.7Z" fill="white"/>
<path d="M63.87 53.77C63.3849 53.8095 62.8967 53.7515 62.4343 53.5995C61.9719 53.4475 61.5446 53.2046 61.1775 52.885C60.8103 52.5654 60.5108 52.1756 60.2966 51.7385C60.0824 51.3015 59.9577 50.826 59.93 50.34C59.8105 49.4955 59.881 48.6349 60.1364 47.8211C60.3918 47.0073 60.8257 46.2608 61.4064 45.636C61.9871 45.0112 62.6999 44.524 63.4929 44.2098C64.2859 43.8956 65.139 43.7625 65.99 43.82C66.7913 43.8443 67.5615 44.1362 68.1777 44.6491C68.7939 45.162 69.2206 45.8664 69.39 46.65C69.6025 47.4918 69.6206 48.3709 69.4429 49.2206C69.2653 50.0704 68.8965 50.8686 68.3645 51.5548C67.8326 52.2409 67.1515 52.7969 66.3727 53.1807C65.594 53.5645 64.7382 53.7661 63.87 53.77ZM67.1 48C67.1411 47.5626 67.037 47.1239 66.8038 46.7516C66.5707 46.3792 66.2214 46.094 65.81 45.94C65.3156 45.7776 64.7797 45.7948 64.2968 45.9887C63.8138 46.1826 63.4148 46.5408 63.17 47C62.7612 47.9718 62.5243 49.0072 62.47 50.06C62.4185 50.4311 62.5158 50.8074 62.7405 51.1071C62.9653 51.4068 63.2994 51.6055 63.67 51.66C64.4071 51.6955 65.1381 51.511 65.77 51.13C66.74 50.48 66.98 49.34 67.1 48Z" fill="white"/>
<path d="M32.27 53.77C29.41 53.77 27.86 51.69 28.37 48.55C28.5965 47.1544 29.3388 45.8947 30.4501 45.0206C31.5613 44.1464 32.9603 43.7215 34.37 43.83C35.186 43.8561 35.9693 44.1566 36.5935 44.6828C37.2177 45.209 37.6462 45.9302 37.81 46.73C38.0009 47.5673 38.0022 48.4368 37.8137 49.2746C37.6252 50.1125 37.2518 50.8976 36.7207 51.5726C36.1895 52.2475 35.5142 52.7951 34.7442 53.1753C33.9741 53.5555 33.1287 53.7587 32.27 53.77ZM30.8 49.07C30.8 50.72 31.25 51.51 32.14 51.74C32.6772 51.8534 33.237 51.7768 33.724 51.5233C34.211 51.2698 34.5948 50.8551 34.81 50.35C35.1767 49.4845 35.3508 48.5495 35.32 47.61C35.2624 47.2823 35.1377 46.9701 34.9535 46.693C34.7694 46.4159 34.5298 46.18 34.25 46C33.8878 45.8236 33.4784 45.7682 33.0824 45.842C32.6863 45.9158 32.3244 46.1149 32.05 46.41C31.6691 46.7429 31.3614 47.1512 31.1463 47.609C30.9311 48.0668 30.8132 48.5643 30.8 49.07Z" fill="white"/>
<path d="M46.64 50C46.8 51.86 47.86 52.16 51.56 51.23C51.88 52.79 51.65 53.23 50.13 53.57C49.1673 53.7728 48.1791 53.8268 47.2 53.73C45.09 53.47 43.95 51.88 43.99 49.49C43.9667 48.7022 44.1126 47.9185 44.418 47.192C44.7234 46.4654 45.1811 45.8128 45.7603 45.2782C46.3394 44.7436 47.0265 44.3395 47.7751 44.0931C48.5238 43.8467 49.3166 43.7638 50.1 43.85C50.7113 43.8704 51.2957 44.1065 51.7496 44.5165C52.2035 44.9265 52.4977 45.4839 52.58 46.09C52.7384 46.7324 52.6508 47.4108 52.3343 47.9918C52.0179 48.5729 51.4956 49.0145 50.87 49.23C49.4765 49.5704 48.064 49.8276 46.64 50ZM46.9 48.15C47.9191 48.3746 48.985 48.2218 49.9 47.72C50.0764 47.5847 50.217 47.4082 50.3094 47.206C50.4018 47.0037 50.4432 46.7819 50.43 46.56C50.3148 46.373 50.1586 46.2146 49.9732 46.0969C49.7879 45.9791 49.5782 45.9049 49.36 45.88C48.7506 45.8947 48.1668 46.128 47.7152 46.5374C47.2635 46.9468 46.9742 47.505 46.9 48.11V48.15Z" fill="white"/>
<path d="M18.41 0.22998V1.22998V36.57C18.41 37.57 18.15 38.18 17.06 38.41V0.22998H18.41Z" fill="white"/>
<path d="M55.86 39.35V0.23999H57.1V1.13999C57.1 13.5533 57.1 25.9633 57.1 38.37C57.1 39.2 56.85 39.58 55.86 39.35Z" fill="white"/>
<path d="M58.7 39.33L57.64 39.2V0.199995L58.7 0.119995V39.33Z" fill="white"/>
<path d="M38.46 0.200012H39.63V1.13001C39.63 12.9633 39.63 24.8 39.63 36.64C39.5752 37.0663 39.4537 37.4814 39.27 37.87C39.04 38.6 38.79 39.34 38.47 40.31L38.46 0.200012Z" fill="white"/>
<path d="M40.2 0.210022H41.3V1.21002C41.3 12.79 41.3 24.37 41.3 35.95C41.3 36.81 41 37.09 40.14 36.95L40.2 0.210022Z" fill="white"/>
<path d="M58.31 51.84C58.3142 51.9099 58.3142 51.98 58.31 52.05C57.98 53.85 57.78 53.98 55.74 53.76C54.57 53.63 53.95 52.83 54.11 51.43C54.27 50.03 54.54 48.75 54.76 47.43C54.83 46.99 54.89 46.56 54.97 46.05L53.75 45.89C54.2 45.17 53.68 43.96 55.14 43.89C55.28 43.89 55.51 43.39 55.51 43.12C55.51 42.01 56.09 41.63 57.14 41.71C57.474 41.7142 57.808 41.6975 58.14 41.66L57.85 43.88L59.74 44.02L59.43 45.86C59.2655 45.8989 59.0984 45.9257 58.93 45.94C57.39 46.01 57.39 46.01 57.15 47.51C57 48.51 56.81 49.44 56.65 50.41C56.46 51.6 56.56 51.73 57.75 51.8L58.31 51.84Z" fill="white"/>
<path d="M75.33 24.3V47.15C75.3551 47.3693 75.3551 47.5907 75.33 47.81C75.33 47.96 75.15 48.08 75.05 48.22C74.92 48.08 74.7 47.95 74.67 47.8C74.6427 47.4672 74.6427 47.1328 74.67 46.8V1.26C74.6448 1.07084 74.6448 0.879168 74.67 0.690002C74.7467 0.510429 74.8477 0.342201 74.97 0.190002C75.1 0.360002 75.31 0.510002 75.34 0.700002C75.3701 1.07941 75.3701 1.4606 75.34 1.84L75.33 24.3Z" fill="white"/>
<path d="M80.51 48.18V1.18C80.4849 0.960715 80.4849 0.739282 80.51 0.519999C80.51 0.399999 80.7 0.219999 80.78 0.239999C80.8637 0.249075 80.9441 0.277236 81.0152 0.322312C81.0863 0.367388 81.1461 0.428178 81.19 0.499999C81.2254 0.752093 81.2254 1.0079 81.19 1.26C81.19 16.5933 81.19 31.9267 81.19 47.26C81.26 47.62 81.55 48.35 80.51 48.18Z" fill="white"/>
<path d="M83.21 24.18V47.18C83.2401 47.399 83.2401 47.621 83.21 47.84C83.21 48 82.98 48.13 82.86 48.28C82.73 48.13 82.55 48 82.5 47.83C82.4646 47.6081 82.4646 47.3819 82.5 47.16V1.21999C82.4644 1.03503 82.4644 0.844958 82.5 0.659993C82.6184 0.479298 82.7634 0.317481 82.93 0.179993C83.03 0.339993 83.2 0.489993 83.22 0.659993C83.2478 0.992745 83.2478 1.32724 83.22 1.65999V24.18H83.21Z" fill="white"/>
<path d="M41.18 39.24H43.6C43.2 41.59 42.8 43.86 42.41 46.13C42.15 47.63 41.91 49.13 41.64 50.62C41.53 51.25 41.47 51.79 42.36 51.85C42.3413 52.0615 42.3113 52.2718 42.27 52.48C41.91 53.83 41.75 53.94 40.49 53.75C40.2664 53.7322 40.0488 53.6682 39.8512 53.562C39.6536 53.4558 39.4802 53.3097 39.342 53.1329C39.2038 52.9562 39.1038 52.7527 39.0484 52.5353C38.993 52.3179 38.9833 52.0913 39.02 51.87C39.16 50.52 39.42 49.18 39.65 47.87C40.15 45 40.67 42.12 41.18 39.24Z" fill="white"/>
<path d="M74.03 48.43C73.8978 48.2154 73.7968 47.9831 73.73 47.74C73.73 47.29 73.73 46.85 73.73 46.4V1.29C73.73 0.92 73.82 0.54 73.88 0C74.38 0.72 74.49 47.17 74.03 48.43Z" fill="white"/>
<path d="M3.65 58.11C3.74941 58.11 3.83 42.928 3.83 24.2C3.83 5.472 3.74941 -9.71002 3.65 -9.71002C3.55059 -9.71002 3.47 5.472 3.47 24.2C3.47 42.928 3.55059 58.11 3.65 58.11Z" fill="white"/>
<path d="M34.34 20.86V40.29C34.3651 40.5728 34.3651 40.8572 34.34 41.14C34.3156 41.2057 34.2739 41.2635 34.2193 41.3075C34.1648 41.3515 34.0994 41.38 34.03 41.39C33.9617 41.373 33.8987 41.3395 33.8464 41.2924C33.7941 41.2453 33.7541 41.1861 33.73 41.12C33.705 40.8974 33.705 40.6726 33.73 40.45V1.20999C33.7149 1.11727 33.7149 1.02271 33.73 0.929993C33.83 0.679993 33.95 0.429993 34.06 0.179993C34.2112 0.415828 34.3195 0.676495 34.38 0.949993C34.35 7.58999 34.34 14.22 34.34 20.86Z" fill="white"/>
<path d="M32.74 0C32.8177 0.133069 32.8718 0.278534 32.9 0.43C32.9 14.05 32.9 27.67 32.9 41.29C32.9 41.39 32.71 41.48 32.47 41.69V0.21L32.74 0Z" fill="white"/>
<path d="M59.44 39.64V0.0499878C59.62 0.309988 59.78 0.449988 59.8 0.599988C59.8278 0.93274 59.8278 1.26723 59.8 1.59999V38.41C59.8 38.83 59.74 39.24 59.72 39.66L59.44 39.64Z" fill="white"/>
<path d="M25.3 38.1C25.1865 37.7767 25.1127 37.441 25.08 37.1C25.08 33.92 25.08 30.75 25.08 27.58C25.08 18.7933 25.08 10.0066 25.08 1.21996C25.1297 0.851075 25.2307 0.490934 25.38 0.149963C25.5536 0.496853 25.6749 0.867539 25.74 1.24996C25.74 13.17 25.74 25.0966 25.74 37.03C25.74 37.36 25.74 37.68 25.68 38.03L25.3 38.1Z" fill="white"/>
<path d="M75.78 57.99C75.8242 57.99 75.86 42.8617 75.86 24.2C75.86 5.53827 75.8242 -9.59003 75.78 -9.59003C75.7358 -9.59003 75.7 5.53827 75.7 24.2C75.7 42.8617 75.7358 57.99 75.78 57.99Z" fill="white"/>
<path d="M42.24 0.23998V36.72H41.99V0.22998L42.24 0.23998Z" fill="white"/>
</g>
<defs>
<clipPath id="clip0_2_210">
<rect width="83.23" height="53.84" fill="white"/>
</clipPath>
</defs>
</svg>
