<svg width="23" height="22" viewBox="0 0 23 22" fill="none" xmlns="http://www.w3.org/2000/svg">
<path d="M15.3333 1.83331H6.70834C5.94585 1.83331 5.21458 2.12304 4.67541 2.63877C4.13624 3.15449 3.83334 3.85397 3.83334 4.58331V13.75C3.83501 14.3173 4.0201 14.8703 4.36324 15.3331C4.70638 15.7959 5.19078 16.1459 5.75001 16.335V20.1666H17.25V16.335C17.8092 16.1459 18.2936 15.7959 18.6368 15.3331C18.9799 14.8703 19.165 14.3173 19.1667 13.75V5.49998C19.1667 4.52752 18.7628 3.59489 18.0439 2.90725C17.325 2.21962 16.35 1.83331 15.3333 1.83331ZM15.3333 18.3333H7.66668V16.5H15.3333V18.3333ZM10.5417 9.16665H15.3333C16.0083 9.15994 16.6695 8.98286 17.25 8.65331V13.75C17.25 13.9931 17.149 14.2263 16.9693 14.3982C16.7896 14.5701 16.5458 14.6666 16.2917 14.6666H6.70834C6.45418 14.6666 6.21042 14.5701 6.0307 14.3982C5.85098 14.2263 5.75001 13.9931 5.75001 13.75V4.58331C5.75001 4.3402 5.85098 4.10704 6.0307 3.93513C6.21042 3.76322 6.45418 3.66665 6.70834 3.66665H15.3333C15.8417 3.66665 16.3292 3.8598 16.6886 4.20362C17.0481 4.54743 17.25 5.01375 17.25 5.49998C17.25 5.98621 17.0481 6.45253 16.6886 6.79634C16.3292 7.14016 15.8417 7.33331 15.3333 7.33331H10.5417C10.2875 7.33331 10.0438 7.23674 9.86403 7.06483C9.68431 6.89292 9.58334 6.65976 9.58334 6.41665H7.66668C7.66668 7.14599 7.96958 7.84547 8.50874 8.36119C9.04791 8.87692 9.77918 9.16665 10.5417 9.16665Z" fill="white"/>
</svg>
