<svg width="21" height="16" viewBox="0 0 21 16" fill="none" xmlns="http://www.w3.org/2000/svg">
<path d="M14.3182 0C14.5713 0 14.8141 0.105357 14.9931 0.292893C15.1722 0.48043 15.2727 0.734784 15.2727 1V5.2L20.2488 1.55C20.3203 1.49746 20.4043 1.4665 20.4915 1.4605C20.5787 1.4545 20.6657 1.4737 20.7432 1.51599C20.8207 1.55829 20.8857 1.62206 20.9309 1.70035C20.9762 1.77865 21.0001 1.86846 21 1.96V14.04C21.0001 14.1315 20.9762 14.2214 20.9309 14.2996C20.8857 14.3779 20.8207 14.4417 20.7432 14.484C20.6657 14.5263 20.5787 14.5455 20.4915 14.5395C20.4043 14.5335 20.3203 14.5025 20.2488 14.45L15.2727 10.8V15C15.2727 15.2652 15.1722 15.5196 14.9931 15.7071C14.8141 15.8946 14.5713 16 14.3182 16H0.954545C0.701384 16 0.458592 15.8946 0.27958 15.7071C0.100568 15.5196 0 15.2652 0 15V1C0 0.734784 0.100568 0.48043 0.27958 0.292893C0.458592 0.105357 0.701384 0 0.954545 0H14.3182ZM13.3636 2H1.90909V14H13.3636V2ZM6.10909 4.829C6.18174 4.82879 6.25293 4.8503 6.31432 4.891L10.4714 7.663C10.5254 7.69917 10.5698 7.749 10.6006 7.80789C10.6314 7.86679 10.6475 7.93285 10.6475 8C10.6475 8.06715 10.6314 8.13321 10.6006 8.19211C10.5698 8.251 10.5254 8.30083 10.4714 8.337L6.31432 11.11C6.25642 11.1487 6.18964 11.1703 6.12101 11.1725C6.05238 11.1748 5.98444 11.1576 5.92435 11.1228C5.86426 11.088 5.81423 11.0368 5.77955 10.9747C5.74487 10.9127 5.72681 10.8419 5.72727 10.77V5.23C5.72727 5.009 5.89909 4.829 6.10909 4.829ZM19.0909 4.84L15.2727 7.64V8.358L19.0909 11.158V4.84Z" fill="#EA5172"/>
</svg>
