<svg width="17" height="18" viewBox="0 0 17 18" fill="none" xmlns="http://www.w3.org/2000/svg">
<path d="M8.5 0.75C4.21155 0.75 0.75 4.46625 0.75 9C0.75 13.5337 4.21155 17.25 8.5 17.25C12.7885 17.25 16.25 13.5337 16.25 9C16.25 4.46625 12.7885 0.75 8.5 0.75ZM8.5 15.75C5.0344 15.75 2.1875 12.7372 2.1875 9C2.1875 5.26276 5.0344 2.25 8.5 2.25C11.9656 2.25 14.8125 5.26276 14.8125 9C14.8125 12.7372 11.9656 15.75 8.5 15.75Z" fill="#FF7043" stroke="#FF7043" stroke-width="0.5"/>
<path d="M9.02851 4V3.75H8.77851H8H7.75V4V8.98667V9.07547L7.80601 9.14437L10.2556 12.1577L10.4496 12.3963L10.6436 12.1577L11.194 11.4806L11.3222 11.3229L11.194 11.1652L9.02851 8.50133V4Z" fill="#FF7043" stroke="#FF7043" stroke-width="0.5"/>
</svg>
