<svg width="24" height="20" viewBox="0 0 24 20" fill="none" xmlns="http://www.w3.org/2000/svg">
<path d="M0.480968 6.25002C0.215439 6.25002 -7.62939e-05 5.97 -7.62939e-05 5.625V0.62502C-7.62939e-05 0.28002 0.215439 0 0.480968 0H22.6083C22.8738 0 23.0894 0.28002 23.0894 0.62502V5.625C23.0894 5.97 22.8738 6.25002 22.6083 6.25002C21.2817 6.25002 20.2032 7.65252 20.2032 9.375C20.2032 11.0975 21.2817 12.5 22.6083 12.5C22.8738 12.5 23.0894 12.78 23.0894 13.125V18.125C23.0894 18.47 22.8738 18.75 22.6083 18.75H0.480923C0.215395 18.75 -0.000120163 18.47 -0.000120163 18.125V13.125C-0.000120163 12.78 0.215395 12.5 0.480923 12.5C1.80762 12.5 2.8861 11.0975 2.8861 9.375C2.8861 7.65252 1.80762 6.25002 0.480968 6.25002ZM3.84815 9.375C3.84815 11.575 2.59171 13.4013 0.961969 13.705V17.5H22.1273V13.705C20.4976 13.4013 19.2411 11.575 19.2411 9.375C19.2411 7.17498 20.4976 5.34873 22.1273 5.04498V1.24998H0.962013V5.04498C2.59171 5.34873 3.84815 7.17498 3.84815 9.375Z" fill="black"/>
<path d="M12.8358 10.5C13.1014 10.5 13.3169 10.78 13.3169 11.125V13.625C13.3169 13.97 13.1014 14.2501 12.8358 14.2501C12.5703 14.2501 12.3548 13.97 12.3548 13.625V11.125C12.3548 10.78 12.5703 10.5 12.8358 10.5Z" fill="black"/>
<path d="M12.8358 5.5C13.1014 5.5 13.3169 5.78002 13.3169 6.12502V8.62498C13.3169 8.96998 13.1014 9.25 12.8358 9.25C12.5703 9.25 12.3548 8.96998 12.3548 8.62498V6.12496C12.3548 5.77996 12.5703 5.5 12.8358 5.5Z" fill="black"/>
<path d="M12.8358 15.5C13.1014 15.5 13.3169 15.78 13.3169 16.125V18.625C13.3169 18.97 13.1014 19.2501 12.8358 19.2501C12.5703 19.2501 12.3548 18.97 12.3548 18.625V16.125C12.3548 15.78 12.5703 15.5 12.8358 15.5Z" fill="black"/>
<path d="M2.25333 10.5C2.51886 10.5 2.73438 10.78 2.73438 11.125V13.625C2.73438 13.97 2.51886 14.2501 2.25333 14.2501C1.9878 14.2501 1.77228 13.97 1.77228 13.625V11.125C1.77228 10.78 1.9878 10.5 2.25333 10.5Z" fill="black"/>
<path d="M2.25333 5.5C2.51886 5.5 2.73438 5.78002 2.73438 6.12502V8.62498C2.73438 8.96998 2.51886 9.25 2.25333 9.25C1.9878 9.25 1.77228 8.96998 1.77228 8.62498V6.12496C1.77228 5.77996 1.9878 5.5 2.25333 5.5Z" fill="black"/>
<path d="M2.25333 15.5C2.51886 15.5 2.73438 15.78 2.73438 16.125V18.625C2.73438 18.97 2.51886 19.2501 2.25333 19.2501C1.9878 19.2501 1.77228 18.97 1.77228 18.625V16.125C1.77228 15.78 1.9878 15.5 2.25333 15.5Z" fill="black"/>
</svg>
