<svg width="182" height="96" viewBox="0 0 182 96" fill="none" xmlns="http://www.w3.org/2000/svg">
<path d="M40.4542 63.6404C34.6547 58.9749 31.2582 53.2201 31.338 47.0471C31.5307 31.777 52.9559 19.6786 79.1842 20.0225C95.6136 20.2508 110.028 25.2987 118.451 32.8003C109.94 26.8116 97.3807 22.9246 83.2743 22.7458C57.4176 22.3965 36.2924 34.6049 36.086 50.007C36.0309 54.6698 37.5999 59.3325 40.4542 63.6404ZM58.4388 60.6804C60.0628 61.5277 62.0776 61.9596 64.4364 61.9596C66.2668 61.9596 68.4771 61.3957 71.0561 60.2788C73.6434 59.162 75.2922 58.6008 76.0133 58.6008C77.318 58.6008 78.43 59.0492 79.341 59.9405C80.2549 60.8372 80.7228 61.9128 80.7228 63.1672C80.7228 66.0364 78.408 68.2784 73.7756 69.8849C70.2524 71.098 66.6494 71.695 62.9859 71.695C57.1066 71.695 52.3503 69.8849 48.7088 66.2565C45.059 62.6308 43.2424 58.0616 43.2424 52.5516C43.2424 47.3029 45.1361 42.8217 48.9235 39.0888C52.7082 35.3366 57.3984 33.4715 62.9831 33.4715C68.2046 33.4715 72.548 35.2431 76.0491 38.7725C79.5475 42.3128 81.2925 46.5244 81.2925 51.4017C81.2925 53.154 80.8494 54.3617 79.9576 55.0356C79.0658 55.7069 77.6758 56.0507 75.7986 56.0507H55.4001C55.4001 58.0644 56.402 59.6103 58.4388 60.6804ZM67.566 44.4338C66.0219 43.1216 64.3979 42.4751 62.6611 42.4751C60.8857 42.4751 59.2343 43.1216 57.7011 44.4338C56.1625 45.7459 55.4001 47.1984 55.4001 48.7884H69.9331C69.8891 47.1901 69.0881 45.7432 67.566 44.4338ZM109.731 70.0224C107.075 71.1338 104.278 71.6922 101.333 71.6922C95.6357 71.6922 91.0088 69.7941 87.4471 65.9869C84.023 62.353 82.311 57.88 82.311 52.5488C82.311 47.2176 84.0505 42.7035 87.5572 39.009C91.0528 35.3229 95.6357 33.4715 101.333 33.4715C104.611 33.4715 107.441 33.9199 109.797 34.8167C113.081 36.0188 114.716 37.9059 114.716 40.456C114.716 41.7599 114.289 42.9015 113.417 43.8836C112.558 44.8656 111.438 45.3691 110.103 45.3691C109.183 45.3691 107.868 45.083 106.136 44.519C104.408 43.9661 103.037 43.6828 102.027 43.6828C99.3322 43.6828 97.2486 44.5686 95.754 46.3429C94.3613 47.9521 93.6622 50.0153 93.6622 52.5516C93.6622 54.9476 94.2925 56.975 95.5393 58.6228C96.9376 60.5319 98.8753 61.4864 101.377 61.4864C102.489 61.4864 103.995 61.1921 105.913 60.5787C107.837 59.9762 109.241 59.6709 110.103 59.6709C111.341 59.6709 112.431 60.1715 113.342 61.1536C114.262 62.1412 114.716 63.2167 114.716 64.3721C114.719 66.7461 113.053 68.6332 109.731 70.0224ZM146.625 65.9896C143.05 69.7968 138.423 71.695 132.728 71.695C127.033 71.695 122.406 69.7968 118.842 65.9896C115.42 62.3557 113.708 57.8828 113.708 52.5516C113.708 47.2204 115.42 42.7475 118.842 39.1108C122.453 35.3449 127.085 33.4715 132.728 33.4715C138.415 33.4715 143.05 35.3449 146.625 39.1108C150.041 42.742 151.761 47.2149 151.761 52.5516C151.761 57.8855 150.041 62.3557 146.625 65.9896ZM138.538 46.4804C137.148 44.6126 135.213 43.68 132.728 43.68C130.251 43.68 128.316 44.6126 126.928 46.4804C125.687 48.1254 125.068 50.1556 125.068 52.5516C125.068 54.9449 125.687 56.997 126.928 58.6833C128.313 60.5649 130.251 61.4892 132.728 61.4892C135.211 61.4892 137.146 60.5649 138.538 58.6833C139.774 56.9943 140.399 54.9421 140.399 52.5516C140.399 50.1556 139.774 48.1227 138.538 46.4804Z" fill="white"/>
</svg>
