<svg width="24" height="22" viewBox="0 0 24 22" fill="none" xmlns="http://www.w3.org/2000/svg">
<path d="M12.3929 0C5.99651 0 0.811768 4.92525 0.811768 11C0.811768 17.0748 5.99651 22 12.3929 22C18.7894 22 23.9741 17.0748 23.9741 11C23.9741 4.92525 18.7894 0 12.3929 0ZM20.6145 5.39533C21.7878 6.94358 22.4912 8.83077 22.5194 10.8738L20.4017 8.45556L20.6145 5.39533ZM19.2113 4.71316L18.971 8.17352L17.1799 8.72609L13.2441 6.0103L13.1168 5.9223V4.13703L16.5082 2.84934L19.2113 4.71316ZM16.3401 9.84655L14.8329 14.2536H9.95292L8.44593 9.84655L12.3929 7.12336L16.3401 9.84655ZM12.3929 1.375C13.4293 1.375 14.4287 1.5247 15.3702 1.80073L12.3929 2.92995L9.41712 1.80005C10.3586 1.5247 11.3573 1.375 12.3929 1.375ZM8.27908 2.84797L11.6691 4.13703V5.9223L11.5419 6.0103L7.60575 8.72609L5.81501 8.17352L5.57452 4.71453L8.27908 2.84797ZM4.17103 5.39533L4.38419 8.45556L2.26611 10.8738C2.29398 8.83077 2.99771 6.94341 4.17103 5.39533ZM3.03264 12.1467L5.36823 9.48131L6.96824 9.97545L7.06903 10.2709L8.57603 14.678L8.59232 14.7249L7.60484 16.0179L4.06354 15.1666L3.03264 12.1467ZM4.17718 16.6121L7.44361 17.3968L9.27145 20.1523C7.20041 19.5131 5.42541 18.2557 4.17718 16.6121ZM10.7205 19.7589L8.77526 16.825L9.57961 15.7737L9.69054 15.6286H15.0959L16.0106 16.825L14.0624 19.7603L10.7205 19.7589ZM15.5137 20.153L17.3437 17.397L20.6087 16.6122C19.3597 18.2564 17.5847 19.5138 15.5137 20.153ZM20.7211 15.1666L17.1825 16.0179L16.8643 15.6016L16.1935 14.7247L16.2098 14.6778L17.7168 10.2707L17.8173 9.97528L19.4176 9.48114L21.753 12.1466L20.7211 15.1666Z" fill="white"/>
</svg>
