<svg width="24" height="24" viewBox="0 0 24 24" fill="none" xmlns="http://www.w3.org/2000/svg">
<mask id="path-1-outside-1_2_490" maskUnits="userSpaceOnUse" x="-0.408691" y="0" width="25" height="24" fill="black">
<rect fill="white" x="-0.408691" width="25" height="24"/>
<path fill-rule="evenodd" clip-rule="evenodd" d="M21.8234 13.4667C22.0369 13.4667 22.2095 13.3028 22.2095 13.1C22.2095 12.8972 22.0369 12.7333 21.8234 12.7333H21.0514C20.8379 12.7333 20.6653 12.8972 20.6653 13.1V16.7667C20.6653 16.9694 20.8379 17.1333 21.0514 17.1333H21.8234C22.0369 17.1333 22.2095 16.9694 22.2095 16.7667C22.2095 16.5639 22.0369 16.4 21.8234 16.4H21.4374V13.4667H21.8234ZM21.8234 10.5333H17.9631C17.7496 10.5333 17.577 10.6972 17.577 10.9V18.9667C17.577 19.1694 17.7496 19.3333 17.9631 19.3333H21.8234C22.0369 19.3333 22.2095 19.1694 22.2095 18.9667C22.2095 18.7639 22.0369 18.6 21.8234 18.6H18.3491V11.2667H21.8234C22.0369 11.2667 22.2095 11.1028 22.2095 10.9C22.2095 10.6972 22.0369 10.5333 21.8234 10.5333ZM2.5215 16.4C2.30841 16.4 2.13546 16.5639 2.13546 16.7667C2.13546 16.9694 2.30841 17.1333 2.5215 17.1333H3.29358C3.50667 17.1333 3.67962 16.9694 3.67962 16.7667V13.1C3.67962 12.8972 3.50667 12.7333 3.29358 12.7333H2.5215C2.30841 12.7333 2.13546 12.8972 2.13546 13.1C2.13546 13.3028 2.30841 13.4667 2.5215 13.4667H2.90754V16.4H2.5215ZM2.5215 19.3333H6.38189C6.59498 19.3333 6.76793 19.1694 6.76793 18.9667V10.9C6.76793 10.6972 6.59498 10.5333 6.38189 10.5333H2.5215C2.30841 10.5333 2.13546 10.6972 2.13546 10.9C2.13546 11.1028 2.30841 11.2667 2.5215 11.2667H5.99585V18.6H2.5215C2.30841 18.6 2.13546 18.7639 2.13546 18.9667C2.13546 19.1694 2.30841 19.3333 2.5215 19.3333ZM8.64138 3.92453L9.90604 4.31467L11.7864 3.01337V1.75203C10.3774 1.8855 9.19071 2.7424 8.64138 3.92453ZM12.5585 1.75203V3.013L14.4439 4.31283L15.7036 3.92453C15.1542 2.7424 13.9676 1.8855 12.5585 1.75203ZM16.0329 5.4C16.0329 5.1327 16.0008 4.87273 15.9433 4.62157L14.6813 5.0106L13.9556 7.17173L14.7319 8.13753C15.5275 7.46543 16.0329 6.48863 16.0329 5.4ZM12.1725 9.06667C12.8774 9.06667 13.5371 8.88333 14.1065 8.56837L13.3279 7.6H11.0059L10.2365 8.56727C10.8063 8.8826 11.4664 9.06667 12.1725 9.06667ZM10.4229 4.86467L11.0919 6.86667H13.2476L13.9216 4.85917L12.1729 3.6532L10.4229 4.86467ZM9.61188 8.13643L10.3824 7.1677L9.66168 5.0106L8.40165 4.62157C8.34413 4.8731 8.31208 5.1327 8.31208 5.4C8.31208 6.48827 8.81664 7.46433 9.61188 8.13643ZM7.54001 5.4C7.54001 4.9281 7.62069 4.47453 7.76584 4.0481C7.76661 4.04553 7.76623 4.04297 7.767 4.0404C7.76816 4.03673 7.77124 4.03417 7.77279 4.03087C8.38041 2.2738 10.1218 1 12.1725 1C14.2239 1 15.9661 2.27453 16.5729 4.0327C16.5741 4.03563 16.5764 4.03747 16.5776 4.0404C16.5783 4.04223 16.5776 4.04443 16.5783 4.04663C16.7243 4.47343 16.8049 4.92773 16.8049 5.4C16.8049 6.84797 16.0614 8.13093 14.9215 8.9332C14.9145 8.93943 14.9106 8.94823 14.9025 8.95373C14.8921 8.96143 14.8798 8.96473 14.8682 8.97097C14.1081 9.49053 13.1785 9.8 12.1725 9.8C11.1672 9.8 10.2392 9.49127 9.47908 8.9728C9.4675 8.9662 9.45476 8.96327 9.44395 8.9552C9.43546 8.94933 9.43121 8.9398 9.42349 8.93357C8.28352 8.13093 7.54001 6.84797 7.54001 5.4ZM11.7864 16.3479V13.5187C11.1224 13.6826 10.6283 14.2521 10.6283 14.9333C10.6283 15.6146 11.1224 16.184 11.7864 16.3479ZM12.5585 13.5187V16.3479C13.2229 16.184 13.7166 15.6146 13.7166 14.9333C13.7166 14.2521 13.2229 13.6826 12.5585 13.5187ZM11.7864 21.1667V17.1003C10.6928 16.9251 9.85624 16.0212 9.85624 14.9333C9.85624 13.8454 10.6928 12.9416 11.7864 12.7663V10.9C11.7864 10.6972 11.9594 10.5333 12.1725 10.5333C12.3856 10.5333 12.5585 10.6972 12.5585 10.9V12.7663C13.6522 12.9416 14.4887 13.8454 14.4887 14.9333C14.4887 16.0212 13.6522 16.9251 12.5585 17.1003V21.1667C12.5585 21.3694 12.3856 21.5333 12.1725 21.5333C11.9594 21.5333 11.7864 21.3694 11.7864 21.1667ZM23.7536 8.7V21.1667C23.7536 22.1776 22.8878 23 21.8234 23H2.5215C1.45719 23 0.591309 22.1776 0.591309 21.1667V8.7C0.591309 7.6891 1.45719 6.86667 2.5215 6.86667H6.76793C6.98102 6.86667 7.15397 7.03057 7.15397 7.23333C7.15397 7.4361 6.98102 7.6 6.76793 7.6H2.5215C1.88299 7.6 1.36339 8.09353 1.36339 8.7V21.1667C1.36339 21.7731 1.88299 22.2667 2.5215 22.2667H21.8234C22.462 22.2667 22.9816 21.7731 22.9816 21.1667V8.7C22.9816 8.09353 22.462 7.6 21.8234 7.6H17.577C17.3635 7.6 17.191 7.4361 17.191 7.23333C17.191 7.03057 17.3635 6.86667 17.577 6.86667H21.8234C22.8878 6.86667 23.7536 7.6891 23.7536 8.7Z"/>
</mask>
<path fill-rule="evenodd" clip-rule="evenodd" d="M21.8234 13.4667C22.0369 13.4667 22.2095 13.3028 22.2095 13.1C22.2095 12.8972 22.0369 12.7333 21.8234 12.7333H21.0514C20.8379 12.7333 20.6653 12.8972 20.6653 13.1V16.7667C20.6653 16.9694 20.8379 17.1333 21.0514 17.1333H21.8234C22.0369 17.1333 22.2095 16.9694 22.2095 16.7667C22.2095 16.5639 22.0369 16.4 21.8234 16.4H21.4374V13.4667H21.8234ZM21.8234 10.5333H17.9631C17.7496 10.5333 17.577 10.6972 17.577 10.9V18.9667C17.577 19.1694 17.7496 19.3333 17.9631 19.3333H21.8234C22.0369 19.3333 22.2095 19.1694 22.2095 18.9667C22.2095 18.7639 22.0369 18.6 21.8234 18.6H18.3491V11.2667H21.8234C22.0369 11.2667 22.2095 11.1028 22.2095 10.9C22.2095 10.6972 22.0369 10.5333 21.8234 10.5333ZM2.5215 16.4C2.30841 16.4 2.13546 16.5639 2.13546 16.7667C2.13546 16.9694 2.30841 17.1333 2.5215 17.1333H3.29358C3.50667 17.1333 3.67962 16.9694 3.67962 16.7667V13.1C3.67962 12.8972 3.50667 12.7333 3.29358 12.7333H2.5215C2.30841 12.7333 2.13546 12.8972 2.13546 13.1C2.13546 13.3028 2.30841 13.4667 2.5215 13.4667H2.90754V16.4H2.5215ZM2.5215 19.3333H6.38189C6.59498 19.3333 6.76793 19.1694 6.76793 18.9667V10.9C6.76793 10.6972 6.59498 10.5333 6.38189 10.5333H2.5215C2.30841 10.5333 2.13546 10.6972 2.13546 10.9C2.13546 11.1028 2.30841 11.2667 2.5215 11.2667H5.99585V18.6H2.5215C2.30841 18.6 2.13546 18.7639 2.13546 18.9667C2.13546 19.1694 2.30841 19.3333 2.5215 19.3333ZM8.64138 3.92453L9.90604 4.31467L11.7864 3.01337V1.75203C10.3774 1.8855 9.19071 2.7424 8.64138 3.92453ZM12.5585 1.75203V3.013L14.4439 4.31283L15.7036 3.92453C15.1542 2.7424 13.9676 1.8855 12.5585 1.75203ZM16.0329 5.4C16.0329 5.1327 16.0008 4.87273 15.9433 4.62157L14.6813 5.0106L13.9556 7.17173L14.7319 8.13753C15.5275 7.46543 16.0329 6.48863 16.0329 5.4ZM12.1725 9.06667C12.8774 9.06667 13.5371 8.88333 14.1065 8.56837L13.3279 7.6H11.0059L10.2365 8.56727C10.8063 8.8826 11.4664 9.06667 12.1725 9.06667ZM10.4229 4.86467L11.0919 6.86667H13.2476L13.9216 4.85917L12.1729 3.6532L10.4229 4.86467ZM9.61188 8.13643L10.3824 7.1677L9.66168 5.0106L8.40165 4.62157C8.34413 4.8731 8.31208 5.1327 8.31208 5.4C8.31208 6.48827 8.81664 7.46433 9.61188 8.13643ZM7.54001 5.4C7.54001 4.9281 7.62069 4.47453 7.76584 4.0481C7.76661 4.04553 7.76623 4.04297 7.767 4.0404C7.76816 4.03673 7.77124 4.03417 7.77279 4.03087C8.38041 2.2738 10.1218 1 12.1725 1C14.2239 1 15.9661 2.27453 16.5729 4.0327C16.5741 4.03563 16.5764 4.03747 16.5776 4.0404C16.5783 4.04223 16.5776 4.04443 16.5783 4.04663C16.7243 4.47343 16.8049 4.92773 16.8049 5.4C16.8049 6.84797 16.0614 8.13093 14.9215 8.9332C14.9145 8.93943 14.9106 8.94823 14.9025 8.95373C14.8921 8.96143 14.8798 8.96473 14.8682 8.97097C14.1081 9.49053 13.1785 9.8 12.1725 9.8C11.1672 9.8 10.2392 9.49127 9.47908 8.9728C9.4675 8.9662 9.45476 8.96327 9.44395 8.9552C9.43546 8.94933 9.43121 8.9398 9.42349 8.93357C8.28352 8.13093 7.54001 6.84797 7.54001 5.4ZM11.7864 16.3479V13.5187C11.1224 13.6826 10.6283 14.2521 10.6283 14.9333C10.6283 15.6146 11.1224 16.184 11.7864 16.3479ZM12.5585 13.5187V16.3479C13.2229 16.184 13.7166 15.6146 13.7166 14.9333C13.7166 14.2521 13.2229 13.6826 12.5585 13.5187ZM11.7864 21.1667V17.1003C10.6928 16.9251 9.85624 16.0212 9.85624 14.9333C9.85624 13.8454 10.6928 12.9416 11.7864 12.7663V10.9C11.7864 10.6972 11.9594 10.5333 12.1725 10.5333C12.3856 10.5333 12.5585 10.6972 12.5585 10.9V12.7663C13.6522 12.9416 14.4887 13.8454 14.4887 14.9333C14.4887 16.0212 13.6522 16.9251 12.5585 17.1003V21.1667C12.5585 21.3694 12.3856 21.5333 12.1725 21.5333C11.9594 21.5333 11.7864 21.3694 11.7864 21.1667ZM23.7536 8.7V21.1667C23.7536 22.1776 22.8878 23 21.8234 23H2.5215C1.45719 23 0.591309 22.1776 0.591309 21.1667V8.7C0.591309 7.6891 1.45719 6.86667 2.5215 6.86667H6.76793C6.98102 6.86667 7.15397 7.03057 7.15397 7.23333C7.15397 7.4361 6.98102 7.6 6.76793 7.6H2.5215C1.88299 7.6 1.36339 8.09353 1.36339 8.7V21.1667C1.36339 21.7731 1.88299 22.2667 2.5215 22.2667H21.8234C22.462 22.2667 22.9816 21.7731 22.9816 21.1667V8.7C22.9816 8.09353 22.462 7.6 21.8234 7.6H17.577C17.3635 7.6 17.191 7.4361 17.191 7.23333C17.191 7.03057 17.3635 6.86667 17.577 6.86667H21.8234C22.8878 6.86667 23.7536 7.6891 23.7536 8.7Z" fill="white"/>
<path fill-rule="evenodd" clip-rule="evenodd" d="M21.8234 13.4667C22.0369 13.4667 22.2095 13.3028 22.2095 13.1C22.2095 12.8972 22.0369 12.7333 21.8234 12.7333H21.0514C20.8379 12.7333 20.6653 12.8972 20.6653 13.1V16.7667C20.6653 16.9694 20.8379 17.1333 21.0514 17.1333H21.8234C22.0369 17.1333 22.2095 16.9694 22.2095 16.7667C22.2095 16.5639 22.0369 16.4 21.8234 16.4H21.4374V13.4667H21.8234ZM21.8234 10.5333H17.9631C17.7496 10.5333 17.577 10.6972 17.577 10.9V18.9667C17.577 19.1694 17.7496 19.3333 17.9631 19.3333H21.8234C22.0369 19.3333 22.2095 19.1694 22.2095 18.9667C22.2095 18.7639 22.0369 18.6 21.8234 18.6H18.3491V11.2667H21.8234C22.0369 11.2667 22.2095 11.1028 22.2095 10.9C22.2095 10.6972 22.0369 10.5333 21.8234 10.5333ZM2.5215 16.4C2.30841 16.4 2.13546 16.5639 2.13546 16.7667C2.13546 16.9694 2.30841 17.1333 2.5215 17.1333H3.29358C3.50667 17.1333 3.67962 16.9694 3.67962 16.7667V13.1C3.67962 12.8972 3.50667 12.7333 3.29358 12.7333H2.5215C2.30841 12.7333 2.13546 12.8972 2.13546 13.1C2.13546 13.3028 2.30841 13.4667 2.5215 13.4667H2.90754V16.4H2.5215ZM2.5215 19.3333H6.38189C6.59498 19.3333 6.76793 19.1694 6.76793 18.9667V10.9C6.76793 10.6972 6.59498 10.5333 6.38189 10.5333H2.5215C2.30841 10.5333 2.13546 10.6972 2.13546 10.9C2.13546 11.1028 2.30841 11.2667 2.5215 11.2667H5.99585V18.6H2.5215C2.30841 18.6 2.13546 18.7639 2.13546 18.9667C2.13546 19.1694 2.30841 19.3333 2.5215 19.3333ZM8.64138 3.92453L9.90604 4.31467L11.7864 3.01337V1.75203C10.3774 1.8855 9.19071 2.7424 8.64138 3.92453ZM12.5585 1.75203V3.013L14.4439 4.31283L15.7036 3.92453C15.1542 2.7424 13.9676 1.8855 12.5585 1.75203ZM16.0329 5.4C16.0329 5.1327 16.0008 4.87273 15.9433 4.62157L14.6813 5.0106L13.9556 7.17173L14.7319 8.13753C15.5275 7.46543 16.0329 6.48863 16.0329 5.4ZM12.1725 9.06667C12.8774 9.06667 13.5371 8.88333 14.1065 8.56837L13.3279 7.6H11.0059L10.2365 8.56727C10.8063 8.8826 11.4664 9.06667 12.1725 9.06667ZM10.4229 4.86467L11.0919 6.86667H13.2476L13.9216 4.85917L12.1729 3.6532L10.4229 4.86467ZM9.61188 8.13643L10.3824 7.1677L9.66168 5.0106L8.40165 4.62157C8.34413 4.8731 8.31208 5.1327 8.31208 5.4C8.31208 6.48827 8.81664 7.46433 9.61188 8.13643ZM7.54001 5.4C7.54001 4.9281 7.62069 4.47453 7.76584 4.0481C7.76661 4.04553 7.76623 4.04297 7.767 4.0404C7.76816 4.03673 7.77124 4.03417 7.77279 4.03087C8.38041 2.2738 10.1218 1 12.1725 1C14.2239 1 15.9661 2.27453 16.5729 4.0327C16.5741 4.03563 16.5764 4.03747 16.5776 4.0404C16.5783 4.04223 16.5776 4.04443 16.5783 4.04663C16.7243 4.47343 16.8049 4.92773 16.8049 5.4C16.8049 6.84797 16.0614 8.13093 14.9215 8.9332C14.9145 8.93943 14.9106 8.94823 14.9025 8.95373C14.8921 8.96143 14.8798 8.96473 14.8682 8.97097C14.1081 9.49053 13.1785 9.8 12.1725 9.8C11.1672 9.8 10.2392 9.49127 9.47908 8.9728C9.4675 8.9662 9.45476 8.96327 9.44395 8.9552C9.43546 8.94933 9.43121 8.9398 9.42349 8.93357C8.28352 8.13093 7.54001 6.84797 7.54001 5.4ZM11.7864 16.3479V13.5187C11.1224 13.6826 10.6283 14.2521 10.6283 14.9333C10.6283 15.6146 11.1224 16.184 11.7864 16.3479ZM12.5585 13.5187V16.3479C13.2229 16.184 13.7166 15.6146 13.7166 14.9333C13.7166 14.2521 13.2229 13.6826 12.5585 13.5187ZM11.7864 21.1667V17.1003C10.6928 16.9251 9.85624 16.0212 9.85624 14.9333C9.85624 13.8454 10.6928 12.9416 11.7864 12.7663V10.9C11.7864 10.6972 11.9594 10.5333 12.1725 10.5333C12.3856 10.5333 12.5585 10.6972 12.5585 10.9V12.7663C13.6522 12.9416 14.4887 13.8454 14.4887 14.9333C14.4887 16.0212 13.6522 16.9251 12.5585 17.1003V21.1667C12.5585 21.3694 12.3856 21.5333 12.1725 21.5333C11.9594 21.5333 11.7864 21.3694 11.7864 21.1667ZM23.7536 8.7V21.1667C23.7536 22.1776 22.8878 23 21.8234 23H2.5215C1.45719 23 0.591309 22.1776 0.591309 21.1667V8.7C0.591309 7.6891 1.45719 6.86667 2.5215 6.86667H6.76793C6.98102 6.86667 7.15397 7.03057 7.15397 7.23333C7.15397 7.4361 6.98102 7.6 6.76793 7.6H2.5215C1.88299 7.6 1.36339 8.09353 1.36339 8.7V21.1667C1.36339 21.7731 1.88299 22.2667 2.5215 22.2667H21.8234C22.462 22.2667 22.9816 21.7731 22.9816 21.1667V8.7C22.9816 8.09353 22.462 7.6 21.8234 7.6H17.577C17.3635 7.6 17.191 7.4361 17.191 7.23333C17.191 7.03057 17.3635 6.86667 17.577 6.86667H21.8234C22.8878 6.86667 23.7536 7.6891 23.7536 8.7Z" stroke="white" stroke-width="0.4" mask="url(#path-1-outside-1_2_490)"/>
</svg>
