<svg width="32" height="32" viewBox="0 0 32 32" fill="none" xmlns="http://www.w3.org/2000/svg">
<g clip-path="url(#clip0_2_413)">
<path d="M7.11062 17.2486L21.351 31.4888C21.6804 31.8184 22.1201 32 22.5889 32C23.0577 32 23.4973 31.8184 23.8267 31.4888L24.8754 30.4403C25.5578 29.7572 25.5578 28.6468 24.8754 27.9647L12.9174 16.0066L24.8887 4.03535C25.2181 3.70573 25.3999 3.26632 25.3999 2.79777C25.3999 2.3287 25.2181 1.88929 24.8887 1.5594L23.84 0.511215C23.5104 0.181593 23.0709 1.90735e-06 22.6021 1.90735e-06C22.1333 1.90735e-06 21.6937 0.181593 21.3643 0.511215L7.11062 14.7644C6.78047 15.095 6.59914 15.5365 6.60018 16.0059C6.59914 16.477 6.78047 16.9182 7.11062 17.2486Z" fill="white" fill-opacity="0.62"/>
</g>
<defs>
<clipPath id="clip0_2_413">
<rect width="32" height="32" fill="white" transform="translate(32 32) rotate(-180)"/>
</clipPath>
</defs>
</svg>
