<svg width="23" height="16" viewBox="0 0 23 16" fill="none" xmlns="http://www.w3.org/2000/svg">
<path d="M15.6818 0C15.9591 0 16.225 0.105357 16.4211 0.292893C16.6171 0.48043 16.7273 0.734784 16.7273 1V5.2L22.1772 1.55C22.2556 1.49746 22.3475 1.4665 22.443 1.4605C22.5385 1.4545 22.6339 1.4737 22.7188 1.51599C22.8037 1.55829 22.8748 1.62206 22.9244 1.70035C22.9739 1.77865 23.0001 1.86846 23 1.96V14.04C23.0001 14.1315 22.9739 14.2214 22.9244 14.2996C22.8748 14.3779 22.8037 14.4417 22.7188 14.484C22.6339 14.5263 22.5385 14.5455 22.443 14.5395C22.3475 14.5335 22.2556 14.5025 22.1772 14.45L16.7273 10.8V15C16.7273 15.2652 16.6171 15.5196 16.4211 15.7071C16.225 15.8946 15.9591 16 15.6818 16H1.04545C0.768183 16 0.502267 15.8946 0.306206 15.7071C0.110146 15.5196 0 15.2652 0 15V1C0 0.734784 0.110146 0.48043 0.306206 0.292893C0.502267 0.105357 0.768183 0 1.04545 0H15.6818ZM14.6364 2H2.09091V14H14.6364V2ZM6.69091 4.829C6.77047 4.82879 6.84845 4.8503 6.91568 4.891L11.4686 7.663C11.5278 7.69917 11.5764 7.749 11.6102 7.80789C11.6439 7.86679 11.6615 7.93285 11.6615 8C11.6615 8.06715 11.6439 8.13321 11.6102 8.19211C11.5764 8.251 11.5278 8.30083 11.4686 8.337L6.91568 11.11C6.85227 11.1487 6.77913 11.1703 6.70396 11.1725C6.62879 11.1748 6.55439 11.1576 6.48857 11.1228C6.42276 11.088 6.36797 11.0368 6.32999 10.9747C6.292 10.9127 6.27222 10.8419 6.27273 10.77V5.23C6.27273 5.009 6.46091 4.829 6.69091 4.829ZM20.9091 4.84L16.7273 7.64V8.358L20.9091 11.158V4.84Z" fill="white"/>
</svg>
