<svg width="154" height="82" viewBox="0 0 154 82" fill="none" xmlns="http://www.w3.org/2000/svg">
<path fill-rule="evenodd" clip-rule="evenodd" d="M77.713 22.3428C77.4063 22.5832 77.1062 22.831 76.8127 23.0853C71.7987 27.4342 68.6248 33.8361 68.6248 40.9804C68.6248 48.1255 71.7987 54.5273 76.8127 58.8756C77.1062 59.1306 77.4063 59.3783 77.713 59.6188C78.0196 59.3783 78.3197 59.1306 78.6138 58.8756C83.6278 54.5273 86.8011 48.1255 86.8011 40.9804C86.8011 33.8361 83.6278 27.4342 78.6138 23.0853C78.3197 22.831 78.0196 22.5832 77.713 22.3428ZM92.4186 17.2632C87.5466 17.2632 83.0184 18.7232 79.2464 21.2267C79.4394 21.3842 79.635 21.5397 79.8214 21.7017C85.427 26.5626 88.6425 33.5897 88.6425 40.9804C88.6425 48.3719 85.427 55.3983 79.8221 60.2598C79.6363 60.4212 79.4394 60.5767 79.2464 60.7342C83.0178 63.2384 87.5466 64.6984 92.4186 64.6984C105.56 64.6984 116.213 54.08 116.213 40.9811C116.213 27.8816 105.56 17.2632 92.4186 17.2632ZM75.6045 60.2598C75.7902 60.4212 75.9865 60.5767 76.1795 60.7342C72.4081 63.2384 67.8793 64.6984 63.0074 64.6984C49.8656 64.6984 39.213 54.08 39.213 40.9811C39.213 27.8822 49.8656 17.2632 63.0074 17.2632C67.8793 17.2632 72.4081 18.7232 76.1795 21.2267C75.9865 21.3842 75.7916 21.539 75.6045 21.7011C69.9989 26.5626 66.7841 33.5897 66.7841 40.9804C66.7841 48.3719 69.9989 55.399 75.6045 60.2598Z" fill="white"/>
</svg>
