<svg width="113" height="60" viewBox="0 0 113 60" fill="none" xmlns="http://www.w3.org/2000/svg">
<path d="M96.5547 24.5836C95.4312 23.7977 93.7308 23.4017 91.5018 23.4017H85.6643L83.4944 35.4246H75.8478L76.3381 32.697H80.9451L81.4929 29.6333L76.8882 29.6417L77.3813 26.9257H82.1257L82.7569 23.4021H73.1195L71.0601 34.8078H67.5259L69.6006 23.4021H64.5622L62.5029 34.8078H59.0568L61.1335 23.4021H56.1007L53.9249 35.425H46.2239L46.7088 32.6974H51.337L51.8817 29.6513L47.2609 29.6469L47.7516 26.9257H52.5487L53.1768 23.4021H23.1523L21.4428 32.9299L18.0385 23.4017H12.8128L9.99991 38.9506H14.9902L16.6926 29.1602L19.9966 38.9506H37.8836L40.0578 26.9253H42.8562L40.6811 38.9506H87.7456L89.1092 31.3589L91.3184 38.9506H96.3119L94.0239 32.7476L94.5461 32.6324C95.6968 32.381 96.5976 31.8392 97.2225 31.0276C97.849 30.2083 98.167 29.1566 98.167 27.8932C98.1674 26.4217 97.6408 25.3398 96.5547 24.5836ZM33.5386 35.4242H25.8976L26.3914 32.6966H31.1838L31.7288 29.6244H26.9817L27.4406 26.9249H35.0683L33.5386 35.4242ZM92.438 30.1871C91.9371 30.5437 91.209 30.72 90.2138 30.72H89.7817H89.2261L89.9832 26.547H90.3669H90.7093C91.5357 26.547 92.1393 26.6828 92.5557 26.9582C92.8807 27.1743 93.266 27.602 93.266 28.4136C93.266 29.3915 92.8178 29.9176 92.438 30.1871Z" fill="white"/>
<path d="M101.121 34.9286C100.525 34.9611 99.9742 35.227 99.5736 35.6804C99.1734 36.1334 98.9688 36.7197 98.9995 37.3301C99.064 38.5875 100.118 39.5581 101.352 39.4951C102.583 39.43 103.537 38.3534 103.473 37.0956V37.0948C103.411 35.8362 102.356 34.8647 101.121 34.9286ZM99.3792 37.3084C99.3556 36.8024 99.5236 36.3173 99.8562 35.9422C100.189 35.5663 100.646 35.3442 101.143 35.3185C102.165 35.2643 103.04 36.0703 103.093 37.1148C103.094 37.147 103.096 37.1811 103.096 37.2124C103.096 38.2148 102.322 39.0541 101.331 39.1072C100.307 39.1602 99.4331 38.3534 99.3792 37.3084Z" fill="white"/>
<path d="M100.495 38.278L100.5 36.1569L101.422 36.1578C101.607 36.1577 101.747 36.1769 101.843 36.2154C101.94 36.2532 102.016 36.3206 102.074 36.4173C102.131 36.5137 102.161 36.6191 102.159 36.736C102.16 36.8865 102.111 37.0129 102.015 37.1165C101.92 37.2192 101.773 37.285 101.574 37.3128C101.646 37.3494 101.702 37.3836 101.739 37.418C101.82 37.4933 101.895 37.5881 101.966 37.7009L102.323 38.2787L101.981 38.2782L101.707 37.8367C101.627 37.7089 101.561 37.6114 101.509 37.5439C101.458 37.4764 101.411 37.4297 101.37 37.4025C101.33 37.3753 101.287 37.3567 101.245 37.3454C101.214 37.3389 101.163 37.3355 101.092 37.3357L100.774 37.3354L100.771 38.2782L100.495 38.278ZM100.775 37.0951L101.365 37.0946C101.489 37.0952 101.589 37.0813 101.66 37.0547C101.73 37.0291 101.784 36.9867 101.821 36.9273C101.857 36.8686 101.877 36.8059 101.876 36.7375C101.876 36.6365 101.841 36.5546 101.77 36.4888C101.699 36.4242 101.586 36.3932 101.432 36.3924L100.775 36.3921L100.775 37.0951Z" fill="white"/>
</svg>
