<svg width="158" height="70" viewBox="0 0 158 70" fill="none" xmlns="http://www.w3.org/2000/svg">
<path d="M26.7511 29.7749C28.2214 28.5157 29.6587 27.976 31.3769 27.9269C34.1028 27.8616 35.9036 29.595 36.4322 32.048C37.1922 35.5476 35.4079 39.7504 32.3021 41.5984C29.9396 43.0047 27.478 43.3645 25.066 41.6147C24.9999 41.5656 24.9173 41.5656 24.719 41.5002C24.5043 42.7103 24.2729 43.8878 24.0747 45.0816C23.9426 45.8338 23.8434 46.5861 23.7278 47.3384C23.6287 47.9271 23.2983 48.2377 22.6539 48.2051C21.8775 48.1723 21.1175 48.2051 20.3411 48.2051C19.2837 48.2051 19.1681 48.0906 19.3168 47.093C19.5812 45.4086 19.8785 43.7079 20.1759 42.0235C20.8697 37.9515 21.5636 33.8796 22.241 29.8076C22.2575 29.7586 22.241 29.6931 22.2575 29.644C22.5384 27.9433 22.5384 27.9433 24.2729 27.9433C24.8512 27.9433 25.4294 27.976 26.0076 27.9433C26.8007 27.8779 26.9824 28.2704 26.8502 28.9408C26.8172 29.1371 26.8007 29.3496 26.7511 29.7749ZM25.6938 36.0055C25.6773 38.0824 27.0154 39.1617 29.064 38.7529C31.0631 38.3604 32.5003 36.4961 32.5003 34.3538C32.5003 32.7021 31.5091 31.7209 29.8404 31.7209C27.7258 31.7209 25.7103 33.8141 25.6938 36.0055Z" fill="white"/>
<path d="M50.4418 29.3988C50.2931 29.4969 50.3757 29.4805 50.3757 29.4314C51.0861 27.3709 52.8538 28.0087 54.3242 27.976C54.8693 27.9597 54.9189 28.4011 54.8363 28.8754C54.4067 31.3121 53.9937 33.7487 53.5808 36.169C53.2669 37.9679 52.986 39.7504 52.672 41.5492C52.5233 42.4486 52.0773 42.8084 51.1687 42.8412C50.9209 42.8412 50.6731 42.8248 50.4252 42.8412C49.3679 42.9229 48.4097 42.8575 48.162 41.68C47.0715 42.0398 46.0639 42.4814 45.0064 42.6776C41.1076 43.3808 38.0513 40.9279 37.8365 37.0194C37.6547 33.6342 39.8355 30.0529 42.9413 28.6302C44.4282 27.9432 46.0472 27.747 47.6167 28.0578C48.5584 28.2377 49.401 28.8754 50.4418 29.3988ZM48.7072 34.5991C48.7237 32.5549 47.2037 31.3774 45.2378 31.8681C43.2222 32.375 41.7354 34.4192 41.9171 36.4471C42.0492 38.0169 43.3874 39.0962 44.9074 38.9C46.9393 38.622 48.6905 36.6433 48.7072 34.5991Z" fill="white"/>
<path d="M128.403 29.1207C129.676 28.2212 130.914 27.9432 132.235 27.9597C133.854 27.976 135.143 28.6791 136.217 29.7912C137.11 30.7234 137.209 31.8844 137.011 33.0782C136.531 35.9728 136.019 38.851 135.54 41.7455C135.441 42.3833 135.143 42.7103 134.45 42.694C133.673 42.6613 132.913 42.694 132.136 42.694C131.245 42.6776 130.997 42.3996 131.129 41.5329C131.46 39.4887 131.806 37.4609 132.153 35.4331C132.202 35.1388 132.235 34.8444 132.301 34.55C132.517 33.6015 132.318 32.8166 131.41 32.3259C130.55 31.8681 129.344 32.0643 128.552 32.702C127.461 33.5852 127.362 34.8444 127.148 36.0709C126.817 37.9351 126.486 39.8158 126.205 41.6965C126.09 42.4159 125.743 42.7431 124.999 42.7103C124.207 42.6776 123.397 42.6776 122.604 42.7103C121.844 42.7431 121.613 42.4486 121.745 41.7455C122.059 40.0284 122.34 38.3276 122.638 36.6105C123.067 34.0921 123.512 31.5738 123.91 29.0553C124.042 28.254 124.421 27.9269 125.232 27.976C125.941 28.025 126.669 28.0087 127.379 27.976C128.073 27.9105 128.568 28.0578 128.403 29.1207Z" fill="white"/>
<path d="M115.17 41.5166C113.733 42.4977 112.345 42.7594 110.891 42.6613C108.909 42.5304 106.893 41.075 106.497 39.2598C106.315 38.4257 106.53 37.4935 106.678 36.6268C107.091 34.043 107.554 31.492 107.983 28.9082C108.099 28.2377 108.43 27.8942 109.14 27.9269C109.916 27.9597 110.676 27.9269 111.453 27.9432C112.246 27.9597 112.56 28.303 112.444 29.0716C112.064 31.3447 111.684 33.6179 111.238 35.891C111.056 36.8231 111.073 37.6408 111.948 38.2131C112.708 38.7201 113.931 38.6547 114.757 38.115C115.847 37.3954 116.112 36.2671 116.31 35.0896C116.657 32.9964 117.037 30.9196 117.384 28.8264C117.483 28.2049 117.797 27.9269 118.425 27.9432C119.301 27.9597 120.192 27.9597 121.068 27.9432C121.679 27.9269 121.927 28.2049 121.827 28.7936C121.068 33.1273 120.308 37.4609 119.581 41.8109C119.466 42.4651 119.118 42.6776 118.524 42.6776C117.731 42.6776 116.921 42.6448 116.128 42.6776C115.418 42.7266 114.939 42.5795 115.17 41.5166Z" fill="white"/>
<path d="M61.7585 36.7904C62.0393 36.3161 62.2376 35.9728 62.4358 35.6293C63.7245 33.3235 65.0296 31.0177 66.3016 28.7119C66.5825 28.2049 66.913 27.9269 67.5242 27.9596C68.3502 27.9923 69.1763 27.9596 70.0024 27.976C71.0102 27.976 71.1588 28.254 70.6631 29.1534C69.2755 31.6554 67.8711 34.1576 66.4835 36.6433C64.5174 40.1591 62.535 43.6751 60.5856 47.2074C60.189 47.9434 59.743 48.3358 58.8509 48.2377C58.2065 48.1559 57.5292 48.2214 56.8683 48.2214C55.6458 48.2214 55.4971 47.976 56.1084 46.8967C56.7361 45.752 57.364 44.6073 58.0578 43.4952C58.4543 42.8412 58.5039 42.2034 58.3883 41.4674C57.6449 37.232 56.9345 33.0128 56.191 28.7772C56.0919 28.254 56.2571 27.976 56.8023 27.976C57.6614 27.9596 58.5039 27.976 59.363 27.976C59.9742 27.976 60.2055 28.3358 60.3047 28.8917C60.7011 31.3121 61.1307 33.716 61.5602 36.1199C61.5767 36.2835 61.6594 36.447 61.7585 36.7904Z" fill="white"/>
<path d="M102.829 38.4748C102.631 38.4748 102.432 38.5075 102.251 38.4748C101.59 38.3604 101.293 38.671 101.21 39.2924C101.012 40.5517 100.731 41.8109 100.599 43.0701C100.268 45.9482 97.9058 48.4503 94.6843 48.2377C94.1887 48.205 93.693 48.2214 93.1974 48.2377C92.6852 48.254 92.487 47.9924 92.5531 47.5182C92.6852 46.6842 92.7844 45.8338 93.0322 45.0489C93.1313 44.7381 93.5939 44.4928 93.9408 44.3293C94.1722 44.2148 94.486 44.3129 94.7504 44.3129C95.4772 44.2803 95.9399 43.9368 96.0719 43.2172C96.3198 41.8762 96.5511 40.5517 96.7989 39.2106C96.898 38.6874 96.7823 38.4748 96.1876 38.4748C94.1887 38.442 94.1722 38.4257 94.4199 36.4797C94.4364 36.3489 94.4695 36.218 94.5025 36.0872C94.8494 34.5336 94.8494 34.4846 96.4685 34.55C97.3111 34.5827 97.6911 34.3865 97.7736 33.4871C97.8728 32.2932 98.2032 31.1322 98.9961 30.1673C100.103 28.7936 101.491 27.9923 103.308 27.9923C104.052 27.9923 104.795 27.9923 105.538 27.9923C106.117 27.9923 106.348 28.2377 106.232 28.81C106.067 29.644 105.935 30.4617 105.786 31.2957C105.687 31.8353 105.39 32.1133 104.828 32.097C104.448 32.097 104.052 32.0643 103.671 32.1133C102.697 32.2114 101.854 33.3562 102.135 34.2392C102.185 34.3701 102.449 34.5172 102.631 34.5336C103.242 34.5664 103.837 34.55 104.448 34.55C105.01 34.55 105.241 34.828 105.125 35.384C104.993 36.0218 104.894 36.6596 104.762 37.2973C104.531 38.4585 104.481 38.4911 103.325 38.4911C103.159 38.4748 102.994 38.4748 102.829 38.4748Z" fill="white"/>
<path d="M81.1869 37.7715C80.2451 37.7715 79.32 37.7715 78.3784 37.7715C77.0236 37.7715 76.5445 36.9703 77.2054 35.8092C78.6096 33.2907 80.0304 30.7724 81.4346 28.254C82.1285 27.0275 82.8059 25.7846 83.4997 24.5418C84.0449 23.577 84.5406 23.4788 85.4987 24.0512C86.457 24.6236 87.4317 25.1959 88.3899 25.7846C89.7116 26.5859 90.2732 28.1722 89.5464 29.5459C88.1916 32.1133 86.7544 34.6482 85.284 37.1665C85.1022 37.4772 84.5901 37.7062 84.2101 37.7389C83.2189 37.8207 82.1947 37.7715 81.1869 37.7715ZM86.2587 31.6227C85.0692 30.9359 83.9954 30.3145 82.9049 29.6768C83.0371 30.9849 85.284 32.2278 86.2587 31.6227ZM84.6231 29.7584C84.937 29.8239 85.317 29.9547 85.3501 29.8893C85.7135 29.3333 86.044 28.7446 86.3248 28.1231C86.3909 27.9596 86.1926 27.6816 86.1265 27.469C86.0108 27.5671 85.8788 27.6489 85.7631 27.747C85.3996 28.3848 85.0362 29.0063 84.6231 29.7584ZM87.1838 28.4502C86.7874 29.1534 86.4735 29.6931 86.1761 30.2491C86.1265 30.3472 86.1761 30.5761 86.2752 30.6579C86.3743 30.7397 86.6057 30.7724 86.7212 30.7069C87.1673 30.478 87.5143 29.1371 87.1838 28.4502ZM84.8214 27.2892C83.5658 27.4036 84.1111 28.3848 83.6319 28.7446C83.7145 28.7936 83.8137 28.8427 83.8962 28.9082C84.1606 28.4339 84.4249 27.9597 84.8214 27.2892Z" fill="white"/>
<path d="M82.3433 40.0775C84.4083 40.0775 86.4734 40.0775 88.5385 40.0775C89.7115 40.0775 89.8272 40.1919 89.8272 41.3203C89.8272 41.9417 89.8272 42.5795 89.8272 43.2009C89.8272 44.1657 89.728 44.2475 88.7202 44.2638C88.0925 44.2638 87.4482 44.2966 86.8203 44.2638C86.1926 44.2311 85.9117 44.4928 85.9282 45.1142C85.9448 45.8175 85.9117 46.5369 85.9448 47.2402C85.9778 47.9434 85.7795 48.3032 84.9701 48.254C83.9788 48.1887 82.9875 48.205 81.9964 48.254C81.3685 48.2868 81.1538 48.0251 81.1703 47.4364C81.1868 46.7005 81.1373 45.9646 81.1868 45.2288C81.2198 44.5255 80.9556 44.2475 80.2287 44.2638C78.7087 44.2966 77.2053 44.2475 75.6855 44.2803C75.0907 44.2966 74.7437 44.0349 74.7107 43.528C74.6447 42.6776 74.6281 41.8109 74.7107 40.9605C74.7768 40.29 75.3054 40.0775 75.9828 40.0775C78.1139 40.0938 80.2287 40.0775 82.3433 40.0775Z" fill="white"/>
<path d="M80.2121 21.222C80.5425 21.3202 80.906 21.3693 81.2034 21.5327C81.8146 21.8435 81.9963 22.3178 81.6495 22.9391C78.6096 28.3685 75.5698 33.8141 72.5135 39.2434C72.0343 40.0938 71.5553 40.1756 70.7953 39.5868C69.8867 38.8836 69.705 37.7062 70.3328 36.5778C72.4639 32.7512 74.6116 28.9408 76.7427 25.1142C77.2549 24.2147 77.734 23.2989 78.2462 22.3994C78.6758 21.6636 79.2705 21.2057 80.2121 21.222Z" fill="white"/>
</svg>
