<svg width="23" height="28" viewBox="0 0 23 28" fill="none" xmlns="http://www.w3.org/2000/svg">
<path d="M17.7604 4.15697L17.7297 4.71175L18.2846 4.68401C20.5488 4.57082 22.1316 6.65403 21.6407 8.35577C21.4004 9.18919 20.6363 10.0589 18.9657 10.5764C17.3396 11.08 14.8943 11.2322 11.3932 10.6781C10.8145 7.3677 10.9762 5.0633 11.5006 3.53558C12.0378 1.97084 12.9455 1.23574 13.8482 1.00105C15.734 0.510791 17.8747 2.094 17.7604 4.15697Z" stroke="white"/>
<path d="M10.1934 26.8882L10.6352 27.1224L10.1934 26.8882C10.1264 27.0146 10.0751 27.0641 10.0492 27.0824C10.0281 27.071 9.9838 27.0399 9.92535 26.9565C9.72501 26.6705 9.62545 26.12 9.87213 25.6483C9.87308 25.647 9.87921 25.6372 9.89572 25.6122C9.89818 25.6085 9.90078 25.6046 9.90351 25.6005C9.92353 25.5702 9.95048 25.5294 9.98123 25.4811C10.052 25.3699 10.1436 25.2178 10.245 25.0207C10.4478 24.6262 10.6854 24.0599 10.8785 23.285C11.1041 22.3799 11.2676 21.1964 11.2476 19.6768C11.4878 22.3936 11.1994 24.9905 10.1934 26.8882ZM10.0305 27.092C10.0304 27.0917 10.0326 27.0907 10.0371 27.0898C10.0328 27.0919 10.0306 27.0923 10.0305 27.092ZM10.8925 15.6657C10.8932 15.6643 10.8936 15.6637 10.8936 15.6638C10.8936 15.6638 10.8933 15.6645 10.8925 15.6657ZM10.5286 15.6526C10.5277 15.6512 10.5273 15.6505 10.5274 15.6505C10.5274 15.6504 10.5278 15.6511 10.5286 15.6526Z" stroke="white"/>
<path d="M4.59432 17.6667L4.62506 17.1119L4.07012 17.1397C1.80598 17.2529 0.223194 15.1697 0.714005 13.4679C0.954378 12.6345 1.71847 11.7648 3.38907 11.2473C5.01514 10.7437 7.46042 10.5916 10.9615 11.1456C11.5403 14.456 11.3786 16.7604 10.8541 18.2881C10.3169 19.8529 9.4092 20.588 8.50651 20.8227C6.62078 21.3129 4.48001 19.7297 4.59432 17.6667Z" stroke="white"/>
<path d="M18.285 17.1393L17.7301 17.1115L17.7609 17.6663C17.8752 19.7305 15.7344 21.3132 13.8486 20.8225C12.9458 20.5876 12.0379 19.8522 11.5007 18.2874C10.9762 16.7596 10.8145 14.4554 11.3932 11.1457C14.8949 10.5916 17.3404 10.7436 18.9664 11.2472C20.637 11.7646 21.4008 12.6343 21.6409 13.4676C22.1313 15.1693 20.5479 17.2524 18.285 17.1393Z" stroke="white"/>
<path d="M4.0697 4.68442L4.62464 4.71216L4.59389 4.15738C4.4795 2.09318 6.62037 0.510537 8.50614 1.00121C9.40897 1.23612 10.3168 1.97151 10.854 3.5363C11.3786 5.06406 11.5403 7.36827 10.9615 10.678C7.45982 11.2321 5.01435 11.0801 3.3883 10.5765C1.71775 10.0591 0.953978 9.18942 0.713841 8.35613C0.223439 6.65443 1.80687 4.57131 4.0697 4.68442Z" stroke="white"/>
</svg>
