<svg width="15" height="15" viewBox="0 0 15 15" fill="none" xmlns="http://www.w3.org/2000/svg">
<path d="M10.794 8.88018H10.1404L9.90875 8.66608C10.7196 7.76214 11.2077 6.5886 11.2077 5.31197C11.2077 2.46534 8.80008 0.157898 5.82984 0.157898C2.85961 0.157898 0.451981 2.46534 0.451981 5.31197C0.451981 8.1586 2.85961 10.466 5.82984 10.466C7.1619 10.466 8.3864 9.99821 9.32959 9.22114L9.55298 9.44316V10.0696L13.6898 14.0263L14.9226 12.8448L10.794 8.88018V8.88018ZM5.82984 8.88018C3.76971 8.88018 2.10671 7.28638 2.10671 5.31197C2.10671 3.33756 3.76971 1.74377 5.82984 1.74377C7.88998 1.74377 9.55298 3.33756 9.55298 5.31197C9.55298 7.28638 7.88998 8.88018 5.82984 8.88018Z" fill="black"/>
</svg>
