<svg width="22" height="20" viewBox="0 0 22 20" fill="none" xmlns="http://www.w3.org/2000/svg">
<path d="M8.09791 1C9.77624 1 11.1379 2.29213 11.1379 3.88745V9.93907H4.76657C3.08823 9.93907 1.72656 8.64694 1.72656 7.05162C1.72656 5.50322 3.22123 3.81527 4.6399 3.76714C4.6399 2.51712 6.2093 1 8.09791 1V1Z" stroke="white" stroke-width="2" stroke-miterlimit="10" stroke-linecap="round" stroke-linejoin="round"/>
<path d="M14.1766 1C12.4983 1 11.1366 2.29213 11.1366 3.88745V9.93907H17.508C19.1863 9.93907 20.548 8.64694 20.548 7.05162C20.548 5.50322 19.0533 3.81527 17.6346 3.76714C17.6346 2.51712 16.0652 1 14.1766 1V1Z" stroke="white" stroke-width="2" stroke-miterlimit="10" stroke-linecap="round" stroke-linejoin="round"/>
<path d="M8.09791 18.8805C9.77624 18.8805 11.1379 17.5883 11.1379 15.993V9.94019H4.76657C3.08823 9.94019 1.72656 11.2323 1.72656 12.8276C1.72656 14.376 3.22123 16.064 4.6399 16.1121C4.6399 17.3633 6.2093 18.8805 8.09791 18.8805Z" stroke="white" stroke-width="2" stroke-miterlimit="10" stroke-linecap="round" stroke-linejoin="round"/>
<path d="M14.1766 18.8805C12.4983 18.8805 11.1366 17.5883 11.1366 15.993V9.94019H17.508C19.1863 9.94019 20.548 11.2323 20.548 12.8276C20.548 14.376 19.0533 16.064 17.6346 16.1121C17.6346 17.3633 16.0652 18.8805 14.1766 18.8805Z" stroke="white" stroke-width="2" stroke-miterlimit="10" stroke-linecap="round" stroke-linejoin="round"/>
</svg>
