<svg width="113" height="60" viewBox="0 0 113 60" fill="none" xmlns="http://www.w3.org/2000/svg">
<path d="M70.2177 24.4462C71.7395 24.4462 72.973 23.2272 72.973 21.7238C72.973 20.2201 71.7395 19 70.2177 19C68.6977 19 67.4648 20.2201 67.4648 21.7238C67.4648 23.2272 68.6977 24.4462 70.2177 24.4462ZM49.1156 25.9159C48.9916 26.225 48.0967 28.724 45.9326 31.3141V20.2391L40.1663 21.3662V41.44H45.9326V35.2349C47.6027 37.7114 48.4274 41.44 48.4274 41.44H55.3342C54.651 38.6322 51.6622 33.4541 51.6622 33.4541C54.3446 30.0919 55.5225 26.5097 55.7101 25.9159H49.1156ZM64.2752 25.7067C59.1104 25.8706 56.4886 28.1615 56.4886 32.7157V41.44H62.1232V34.3256C62.1232 31.5983 62.4844 30.4294 65.7574 30.3182V25.7866C65.2065 25.671 64.2752 25.7067 64.2752 25.7067ZM30.4955 28.1264C29.7893 28.0805 28.1538 27.9763 28.1538 26.5209C28.1538 24.7646 30.5083 24.7646 31.391 24.7646C32.9439 24.7646 34.9547 25.2179 36.3906 25.6426C36.3906 25.6426 37.1916 25.9218 37.873 26.208L37.9367 26.225V26.1612V21.4151L37.8497 21.3896C36.155 20.8034 34.1844 20.2391 30.5311 20.2391C24.2319 20.2391 22 23.8673 22 26.9757C22 28.7673 22.7764 32.984 29.9908 33.4704C30.6024 33.5076 32.2251 33.5998 32.2251 35.1041C32.2251 36.3459 30.8966 37.0781 28.6617 37.0781C26.2125 37.0781 23.8365 36.4606 22.3937 35.875V40.8289C24.554 41.3887 26.9893 41.6685 29.8434 41.6685C36.0025 41.6685 38.7611 38.2356 38.7611 34.8334C38.7611 30.9761 35.6743 28.4697 30.4955 28.1264ZM67.4242 41.44H73.0135V25.9335H67.4242V41.44ZM83.5373 21.2278V41.44H89.1272V20.2391L83.5373 21.2278ZM75.381 21.2278L80.9656 20.2391V41.44H75.381V21.2278Z" fill="white"/>
</svg>
