<svg width="26" height="24" viewBox="0 0 26 24" fill="none" xmlns="http://www.w3.org/2000/svg">
<path d="M13 0.8C6.28229 0.8 0.8 5.80153 0.8 12C0.8 18.1985 6.28229 23.2 13 23.2C19.7178 23.2 25.2 18.1985 25.2 12C25.2001 5.80153 19.7178 0.8 13 0.8ZM2.16 12C2.16 9.48337 3.13954 7.21323 4.83992 5.50471C6.53974 7.21689 7.52001 9.56801 7.52001 12C7.52001 14.432 6.53974 16.7831 4.83992 18.4953C3.13954 16.7868 2.16 14.5167 2.16 12ZM13 21.92C10.2529 21.92 7.77035 20.9424 5.81173 19.4587C7.67514 17.5054 8.88002 14.8821 8.88002 12C8.88002 9.11244 7.76169 6.56677 5.80498 4.53334C7.67305 2.98048 10.2436 2.08 13.0001 2.08C15.7471 2.08 18.2297 3.05765 20.1883 4.54134C18.3249 6.49467 17.12 9.11794 17.12 12C17.12 14.8839 18.2356 17.4269 20.1878 19.459C18.2292 20.9426 15.7469 21.92 13 21.92ZM21.16 18.4952C19.4602 16.783 18.48 14.432 18.48 12C18.48 9.56809 19.4602 7.21697 21.16 5.5048C22.8599 7.21702 23.84 9.56809 23.84 12C23.84 14.432 22.8599 16.783 21.16 18.4952Z" fill="white" stroke="white" stroke-width="0.4"/>
</svg>
