<svg width="113" height="60" viewBox="0 0 113 60" fill="none" xmlns="http://www.w3.org/2000/svg">
<path fill-rule="evenodd" clip-rule="evenodd" d="M48.0771 18.431L38.0419 42.6773H31.5173L26.5884 23.3521C26.3047 22.1668 26.0211 21.7357 25.1346 21.2328C23.6098 20.4067 21.1631 19.6164 19 19.1495L19.1418 18.431H29.6734C31.0209 18.431 32.2265 19.3291 32.5102 20.9095L35.1342 34.9185L41.5879 18.431H48.0771ZM73.7146 34.7748C73.75 28.381 64.9914 28.0218 65.0269 25.1841C65.0624 24.322 65.8779 23.3881 67.6509 23.1366C68.5374 23.0289 70.9841 22.9211 73.75 24.2142L74.8493 19.0776C73.36 18.5388 71.4451 18 69.0693 18C62.9702 18 58.6441 21.3047 58.6087 26.0102C58.5732 29.4945 61.6937 31.4342 64.034 32.6196C66.4453 33.805 67.2609 34.5593 67.2609 35.6369C67.2254 37.2533 65.346 37.9717 63.573 38.0076C60.4526 38.0436 58.6441 37.1456 57.2257 36.4631L56.091 41.7793C57.5449 42.4618 60.2043 43.0365 62.9702 43.0724C69.4594 43.0724 73.6791 39.8037 73.7146 34.7748ZM89.8842 42.6773H95.5933L90.5934 18.431H85.3099C84.1043 18.431 83.1114 19.1135 82.6859 20.1911L73.3954 42.6414H79.8846L81.1611 39.0134H89.1041L89.8842 42.6773ZM82.9696 34.0923L86.2319 25.0045L88.1113 34.0923H82.9696ZM56.9066 18.431L51.8004 42.6773H45.6304L50.7366 18.431H56.9066Z" fill="white"/>
</svg>
