<svg width="25" height="24" viewBox="0 0 25 24" fill="none" xmlns="http://www.w3.org/2000/svg">
<path d="M21.5826 7.10989C18.4769 5.36588 14.8198 4.50373 11.0725 4.96724C10.9972 4.00633 10.9986 3.04541 11.0767 2.08454C11.0994 2.08067 11.1251 2.07657 11.1534 2.07241C11.2989 2.05099 11.498 2.03 11.672 2.03H11.6736H11.6753H11.6769H11.6785H11.6801H11.6817H11.6833H11.685H11.6866H11.6882H11.6898H11.6914H11.693H11.6947H11.6963H11.6979H11.6995H11.7011H11.7027H11.7044H11.706H11.7076H11.7092H11.7108H11.7124H11.7141H11.7157H11.7173H11.7189H11.7205H11.7222H11.7238H11.7254H11.727H11.7286H11.7302H11.7319H11.7335H11.7351H11.7367H11.7383H11.7399H11.7416H11.7432H11.7448H11.7464H11.748H11.7496H11.7513H11.7529H11.7545H11.7561H11.7577H11.7593H11.761H11.7626H11.7642H11.7658H11.7674H11.769H11.7707H11.7723H11.7739H11.7755H11.7771H11.7788H11.7804H11.782H11.7836H11.7852H11.7868H11.7885H11.7901H11.7917H11.7933H11.7949H11.7965H11.7982H11.7998H11.8014H11.803H11.8046H11.8062H11.8079H11.8095H11.8111H11.8127H11.8143H11.8159H11.8176H11.8192H11.8208H11.8224H11.824H11.8256H11.8273H11.8289H11.8305H11.8321H11.8337H11.8354H11.837H11.8386H11.8402H11.8418H11.8434H11.8451H11.8467H11.8483H11.8499H11.8515H11.8531H11.8548H11.8564H11.858H11.8596H11.8612H11.8628H11.8645H11.8661H11.8677H11.8693H11.8709H11.8725H11.8742H11.8758H11.8774H11.879H11.8806H11.8822H11.8839H11.8855H11.8871H11.8887H11.8903H11.892H11.8936H11.8952H11.8968H11.8984H11.9H11.9017H11.9033H11.9049H11.9065H11.9081H11.9097H11.9114H11.913H11.9146H11.9162H11.9178H11.9194H11.9211H11.9227H11.9243H11.9259H11.9275H11.9291H11.9308H11.9324H11.934H11.9356H11.9372H11.9388H11.9405H11.9421H11.9437H11.9453H11.9469H11.9486H11.9502H11.9518H11.9534H11.955H11.9566H11.9583H11.9599H11.9615H11.9631H11.9647H11.9663H11.968H11.9696H11.9712H11.9728H11.9744H11.976H11.9777H11.9793H11.9809H11.9825H11.9841H11.9857H11.9874H11.989H11.9906H11.9922H11.9938H11.9954H11.9971H11.9987H12.0003H12.0019H12.0035H12.0052H12.0068H12.0084H12.01H12.0116H12.0132H12.0149H12.0165H12.0181H12.0197H12.0213H12.0229H12.0246H12.0262H12.0278H12.0294H12.031H12.0326H12.0343H12.0359H12.0375H12.0391H12.0407H12.0423H12.044H12.0456H12.0472H12.0488H12.0504H12.0521H12.0537H12.0553H12.0569H12.0585H12.0601H12.0618H12.0634H12.065H12.0666H12.0682H12.0698H12.0715H12.0731H12.0747H12.0763H12.0779H12.0795H12.0812H12.0828H12.0844H12.086H12.0876H12.0892H12.0909H12.0925H12.0941H12.0957H12.0973H12.0989H12.1006H12.1022H12.1038H12.1054H12.107H12.1087H12.1103H12.1119H12.1135H12.1151H12.1167H12.1184H12.12H12.1216H12.1232H12.1248H12.1264H12.1281H12.1297H12.1313H12.1329H12.1345H12.1361H12.1378H12.1394H12.141H12.1426H12.1442H12.1458H12.1475H12.1491H12.1507H12.1523H12.1539H12.1556H12.1572H12.1588H12.1604H12.162H12.1636H12.1653H12.1669H12.1685H12.1701H12.1717H12.1733H12.175H12.1766H12.1782H12.1798H12.1814H12.183H12.1847H12.1863H12.1879H12.1895H12.1911H12.1927H12.1944H12.196H12.1976H12.1992H12.2008H12.2024H12.2041H12.2057H12.2073H12.2089H12.2105H12.2122H12.2138H12.2154H12.217H12.2186H12.2202H12.2219H12.2235H12.2251H12.2267H12.2283H12.2299H12.2316H12.2332H12.2348H12.2364H12.238H12.2396H12.2413H12.2429H12.2445H12.2461H12.2477H12.2493H12.251H12.2526H12.2542H12.2558H12.2574H12.2591H12.2607H12.2623H12.2639H12.2655H12.2671H12.2688H12.2704H12.272H12.2736H12.2752H12.2768H12.2785H12.2801H12.2817H12.2833H12.2849H12.2865H12.2882H12.2898H12.2914H12.293H12.2946H12.2962H12.2979H12.2995H12.3011H12.3027H12.3043H12.3059H12.3076H12.3092H12.3108H12.3124H12.314H12.3157H12.3173H12.3189H12.3205H12.3221H12.3237H12.3254H12.327H12.3286H12.3302H12.3318H12.3334H12.3351H12.3367H12.3383H12.3399H12.3415H12.3431H12.3448H12.3464H12.348H12.3496H12.3512H12.3528H12.3545H12.3561H12.3577H12.3593H12.3609H12.3625H12.3642H12.3658H12.3674H12.369H12.3706H12.3723H12.3739H12.3755H12.3771H12.3787H12.3803H12.382H12.3836H12.3852H12.3868H12.3884H12.39H12.3917H12.3933H12.3949H12.3965H12.3981H12.3997H12.4014H12.403H12.4046H12.4062H12.4078H12.4094H12.4111H12.4127H12.4143H12.4159H12.4175H12.4191H12.4208H12.4224H12.424H12.4256H12.4272H12.4288H12.4305H12.4321H12.4337H12.4353H12.4369H12.4386H12.4402H12.4418H12.4434H12.445H12.4466H12.4483H12.4499H12.4515H12.4531H12.4547H12.4563H12.458H12.4596H12.4612H12.4628H12.4644H12.466H12.4677H12.4693H12.4709H12.4725H12.4741H12.4757H12.4774H12.479H12.4806H12.4822H12.4838H12.4854H12.4871H12.4887H12.4903H12.4919H12.4935H12.4951H12.4968H12.4984H12.5C16.3127 2.03 19.5769 3.93978 21.3893 6.80032L21.3892 6.8004L21.393 6.80581C21.4499 6.88743 21.5172 6.99749 21.5826 7.10989ZM6.23266 4.03046L6.23272 4.03056L6.23767 4.02712C7.23632 3.33242 8.32562 2.81138 9.50637 2.46388L9.50638 2.46391L9.5096 2.46289C9.6125 2.43007 9.7279 2.39743 9.8291 2.3688C9.83505 2.36712 9.84096 2.36545 9.84681 2.36379C9.61972 5.28645 10.1774 8.3646 11.773 11.1177C10.8996 12.5198 9.86232 13.6826 8.6618 14.6079C6.28171 11.5979 5.30784 8.00967 5.65171 4.50224C5.76767 4.39245 6.00179 4.17766 6.23266 4.03046ZM4.16892 6.08552C4.21622 5.99503 4.27781 5.90298 4.34067 5.8187C4.34352 9.1804 5.43055 12.5231 7.67898 15.3944C6.39172 16.2039 5.10409 16.8535 3.66341 17.2749C3.65809 17.2649 3.65253 17.2547 3.6468 17.2444C3.60756 17.1737 3.5541 17.0857 3.49678 16.9925C3.48244 16.9691 3.46784 16.9455 3.4531 16.9216C3.34776 16.7507 3.23492 16.5677 3.15694 16.4185L3.15699 16.4185L3.15502 16.415C2.43307 15.1202 2.07 13.562 2.07 12C2.07 9.74628 2.79426 7.7562 4.15167 6.11151L4.16165 6.09942L4.16892 6.08552ZM7.33667 20.6736L7.33401 20.6719C6.32507 20.0577 5.33063 19.3641 4.61107 18.5038L4.60572 18.4974L4.59969 18.4916C4.54014 18.4347 4.48385 18.3808 4.43737 18.3337C7.86831 17.1698 10.8491 14.9068 12.859 11.7103C14.5027 11.7208 16.1465 12.0438 17.6333 12.5307C15.7879 16.7185 12.0024 19.7112 7.7697 20.8311L7.66983 20.8575C7.57291 20.8141 7.44886 20.7451 7.33667 20.6736ZM9.53652 21.5902C13.5846 20.0499 16.9266 17.0525 18.7416 12.9879C20.1142 13.577 21.3209 14.3223 22.3627 15.2229C22.3554 15.2432 22.3457 15.2668 22.3337 15.2937C22.3014 15.3657 22.2577 15.4494 22.2111 15.5385L22.2106 15.5382L22.2054 15.5507C20.664 19.2802 16.9457 21.97 12.5 21.97C11.4901 21.97 10.478 21.8206 9.53652 21.5902ZM12.8659 10.5323C12.0904 9.11757 11.4856 7.63068 11.2041 6.146C15.3252 5.67228 19.3474 6.79526 22.4909 9.09922C22.4952 9.10931 22.4998 9.12023 22.5047 9.1319C22.5496 9.23925 22.6151 9.40678 22.6584 9.572C22.8395 10.3519 22.93 11.1319 22.93 12C22.93 12.531 22.9294 13.0407 22.842 13.4618C22.7964 13.6361 22.7504 13.8122 22.7157 13.9559C22.7107 13.9767 22.7059 13.9971 22.7013 14.0167C19.9687 11.9055 16.5492 10.6365 12.8659 10.5323ZM22.5989 9.11118C22.5832 9.11158 22.5692 9.10951 22.5571 9.10635L22.6303 9.04371C22.637 9.05943 22.6444 9.07708 22.6523 9.09637C22.6332 9.10382 22.6123 9.1098 22.5989 9.11118ZM12.5 0.85C6.07552 0.85 0.85 5.83895 0.85 12C0.85 18.1611 6.07552 23.15 12.5 23.15C18.9245 23.15 24.15 18.161 24.15 12C24.15 5.83895 18.9245 0.85 12.5 0.85Z" fill="white" stroke="white" stroke-width="0.3"/>
</svg>
